<svg width="221" height="236" viewBox="0 0 221 236" fill="none" xmlns="http://www.w3.org/2000/svg">
<path d="M101.211 5.37207C104.428 3.7472 108.221 3.72447 111.458 5.31055L198.363 47.9033C202.304 49.8348 204.802 53.8407 204.802 58.2295V173.109C204.802 177.352 202.466 181.251 198.724 183.251L111.825 229.712C108.391 231.547 104.263 231.521 100.853 229.643L16.7524 183.302C13.082 181.279 10.8022 177.42 10.8022 173.229V58.1133C10.8022 53.7743 13.2447 49.8049 17.1177 47.8486L101.211 5.37207Z" fill="#1F4638" stroke="#1F4638" strokeWidth="5"/>
<path d="M46.3477 65.4062L45.8684 65.9757L43.1756 64.7397C42.4755 65.3696 41.9819 65.8667 41.6947 66.2311C41.1302 66.9474 40.6409 67.8656 40.2268 68.9856C40.5089 69.6358 40.9738 70.3383 41.6216 71.0932C42.2693 71.8481 42.9325 72.4929 43.6111 73.0277C47.0795 75.7611 49.601 76.1287 51.1756 74.1306C51.8491 73.276 52.2582 72.4984 52.403 71.7977L50.4152 69.5895C51.0392 68.7978 51.5585 68.2292 51.9733 67.8839C53.5015 68.7623 54.6929 69.5382 55.5474 70.2116C55.5359 70.6915 55.307 71.499 54.8605 72.6343C54.4239 73.757 53.859 74.7581 53.1658 75.6378C50.2146 79.3827 46.4267 79.4329 41.8021 75.7884C39.6029 74.0554 38.2881 72.2858 37.8576 70.4798C37.4369 68.6612 38.0139 66.7529 39.5886 64.7547C40.3709 63.762 41.2087 62.9962 42.1018 62.4574C42.888 61.9769 43.62 61.6167 44.2979 61.3768C45.1525 62.0503 46.1087 62.9566 47.1665 64.0958C46.9772 64.517 46.7043 64.9538 46.3477 65.4062ZM65.1413 60.931L61.4561 56.6288L56.6119 60.6379C58.1175 62.5072 59.2477 63.898 60.0026 64.8101L61.4161 63.9207C61.8343 64.426 62.1363 65.0795 62.3221 65.8812L57.8293 69.5996L56.8212 68.7204C57.2769 67.8656 57.6466 67.2584 57.9306 66.8988C57.9 66.8618 55.1462 63.6475 49.6694 57.2558L47.7369 58.0452L46.9514 56.7949L51.7401 52.8317C52.2127 53.0013 52.7328 53.3912 53.3002 54.0016C52.7532 54.6205 52.3913 55.0238 52.2145 55.2117C53.516 56.8345 54.4983 58.0465 55.1614 58.8477L59.9501 54.8844L56.8801 51.288L54.9477 52.0774L54.1621 50.8271L58.9508 46.8639C59.4235 47.0334 59.9435 47.4234 60.511 48.0338C59.964 48.6526 59.602 49.056 59.4252 49.2439L67.2134 58.8423L68.6268 57.9528C69.0451 58.4582 69.3471 59.1117 69.5329 59.9133L65.04 63.6317L64.032 62.7526C64.4876 61.8978 64.8574 61.2906 65.1413 60.931ZM69.1198 40.9242C71.6183 39.6603 73.455 39.1795 74.6299 39.4817C75.6974 39.7486 76.5705 40.5531 77.2494 41.8951C78.3039 43.9796 77.9374 45.9491 76.1501 47.8035L81.5848 50.8907L83.5241 50.1518C83.8346 50.7657 83.981 51.4627 83.9632 52.2427L80.8579 53.8136L73.4212 49.5336L72.7359 49.8803L74.8817 54.2816L76.5317 53.6621C76.8278 54.2475 76.9778 54.9516 76.9816 55.7744L71.6919 58.4503L70.9033 57.3699C71.5866 56.5939 72.0816 56.0836 72.3881 55.8389C71.4712 54.0972 70.363 51.9951 69.0635 49.5325C67.764 47.07 66.894 45.4211 66.4536 44.586L64.4053 44.9498C64.2534 44.6142 64.0974 44.1462 63.9372 43.5459L69.1198 40.9242ZM71.9708 42.3599C71.4777 42.4838 70.8599 42.7336 70.1175 43.1091L69.5178 43.4125C70.486 45.3972 71.2192 46.8821 71.7175 47.8672L72.7561 47.315C73.5912 46.8746 74.1684 46.3674 74.4877 45.7935C74.8141 45.198 74.7317 44.4149 74.2406 43.444C73.7495 42.4732 72.9929 42.1118 71.9708 42.3599ZM87.1153 33.518C87.1 33.5228 87.1048 33.5381 87.1296 33.5639C87.1697 33.5849 87.2216 33.6441 87.2855 33.7415C87.3599 33.8189 87.4414 33.9192 87.5301 34.0424C87.6979 34.2582 87.8852 34.644 88.0918 35.1997C87.3509 35.5646 86.8629 35.8005 86.6281 35.9072L90.1908 47.7432L91.8361 47.4567C92.0312 48.083 92.0626 48.8022 91.9303 49.6144L86.3624 51.3495L85.7634 50.1536C86.5094 49.5356 87.0819 49.1142 87.4811 48.8893C87.1849 47.9928 86.7669 46.7321 86.227 45.1071C85.0387 41.4553 84.1289 38.6971 83.4976 36.8325L81.4101 36.8294L81.1579 35.3745L87.1153 33.518ZM100.049 45.8321C101.885 45.558 102.686 44.6377 102.452 43.071C102.353 42.4064 101.92 41.8966 101.156 41.5417C100.597 41.2692 99.8455 41.0013 98.9002 40.738C97.9685 40.4565 97.2633 40.2302 96.7848 40.059C96.3221 39.8854 95.774 39.6275 95.1405 39.2853C93.9233 38.6097 93.2214 37.6468 93.0347 36.3967C92.8481 35.1465 93.1759 34.0379 94.0183 33.0709C94.8742 32.0857 96.1329 31.469 97.7945 31.2209C99.4561 30.9728 101.308 31.2382 103.349 32.0173C103.519 33.1566 103.585 34.4087 103.546 35.7734C103.063 36.0073 102.323 36.1986 101.326 36.3475L100.216 33.6256C99.6047 33.539 98.9508 33.5476 98.2546 33.6516C97.5583 33.7556 97.0427 33.9863 96.7078 34.3437C96.3729 34.701 96.2504 35.1804 96.3402 35.7817C96.4276 36.3672 96.7995 36.8536 97.4559 37.2409C98.1258 37.6101 98.9096 37.9298 99.8074 38.2002C100.703 38.4547 101.321 38.6375 101.661 38.7485C102.001 38.8594 102.44 39.0366 102.978 39.2798C103.515 39.523 103.932 39.7682 104.228 40.0152C104.99 40.6779 105.441 41.476 105.58 42.4097C105.826 44.0554 105.469 45.4029 104.51 46.4522C103.55 47.5014 102.192 48.1572 100.436 48.4195C99.5019 48.5589 98.4497 48.5542 97.2789 48.4055C96.1216 48.2386 95.1174 47.9599 94.2664 47.5693C94.1539 46.5993 94.0855 45.2748 94.0613 43.596C94.6754 43.3749 95.4255 43.1982 96.3117 43.0658L97.2355 45.8398C98.146 45.9788 99.0839 45.9763 100.049 45.8321ZM108.397 34.741C108.189 33.627 108.099 32.7503 108.127 32.1109C108.154 31.4715 108.204 30.8891 108.274 30.3636L122.205 30.9659C122.236 31.7359 122.246 32.2568 122.234 32.5286C122.204 33.2159 122.036 34.1455 121.729 35.3174C121.26 35.4252 120.498 35.4563 119.443 35.4107L118.996 32.9652L116.958 32.877C116.916 33.4838 116.666 37.5968 116.208 45.2162L117.925 45.5066C117.894 46.2419 117.68 46.9293 117.284 47.5688L111.457 47.3169L111.298 45.9888C112.419 45.6209 113.125 45.4192 113.414 45.3837C113.417 45.3197 113.503 41.1115 113.672 32.759L111.298 32.6564L110.669 34.9834C109.726 34.9426 108.969 34.8618 108.397 34.741ZM135.205 46.7085L140.783 35.9626L146.753 37.7789C146.675 38.4744 146.594 38.9599 146.51 39.2354C145.696 39.2721 145 39.2778 144.423 39.2526L142.441 51.6193L143.963 52.308C143.772 52.9356 143.393 53.5479 142.827 54.1449L137.247 52.4473L137.425 51.1216C138.389 51.0304 139.1 51.004 139.556 51.0426L140.638 41.1367L135.202 50.5957L132.86 49.8832L132.648 37.5516L127.609 47.1065L129.13 47.7951C128.939 48.4227 128.56 49.035 127.994 49.632L122.415 47.9345L122.592 46.6088C123.557 46.5175 124.267 46.4912 124.724 46.5297L130.049 34.8795L128.325 33.7026L128.935 32.3579L135.364 34.314L134.976 46.6386L135.205 46.7085ZM163.504 47.3584L163.394 47.5732C163.039 48.125 162.649 48.5397 162.223 48.8174C161.962 48.8394 161.616 48.7696 161.188 48.608L158.144 60.7475L159.906 62.2232C159.551 62.7749 159.02 63.2607 158.312 63.6806L153.407 60.5255L153.94 59.2985C154.644 59.4467 155.105 59.5435 155.323 59.5887L155.983 56.7885L151.441 53.8671C150.267 54.805 149.649 55.2923 149.588 55.3288L150.863 56.4063C150.682 56.6889 150.416 56.984 150.066 57.2915C149.724 57.5856 149.459 57.7763 149.27 57.8638L144.365 54.7086L144.897 53.4816C145.667 53.6155 146.333 53.7777 146.896 53.9682L156.961 45.7746C156.145 45.0601 155.578 44.4481 155.259 43.9384C155.51 43.5482 155.792 43.244 156.103 43.0259C156.446 43.1135 157.175 43.43 158.289 43.9754C159.425 44.516 160.464 45.0892 161.406 45.6952C162.362 46.3097 163.061 46.8642 163.504 47.3584ZM157.33 51.2342L158.458 48.1933L158.256 48.0635L155.819 50.4335L153.247 52.3463L156.618 54.5146L157.33 51.2342ZM165.6 67.4375C166.917 68.7448 168.134 68.8364 169.249 67.712C169.723 67.235 169.873 66.5839 169.7 65.7587C169.585 65.1482 169.35 64.3854 168.996 63.4703C168.664 62.5552 168.424 61.8546 168.275 61.3687C168.137 60.8941 168.016 60.3005 167.912 59.5882C167.725 58.2086 168.077 57.0702 168.968 56.173C169.858 55.2758 170.943 54.8757 172.222 54.9727C173.523 55.0695 174.77 55.7096 175.962 56.893C177.155 58.0764 178.049 59.7192 178.646 61.8212C177.834 62.6389 176.87 63.4402 175.753 64.2252C175.277 63.9781 174.681 63.4995 173.965 62.7895L175.483 60.272C175.187 59.7301 174.789 59.2112 174.289 58.7153C173.79 58.2194 173.296 57.9441 172.81 57.8894C172.323 57.8347 171.865 58.0231 171.437 58.4546C171.02 58.8748 170.853 59.4638 170.935 60.2215C171.04 60.9791 171.252 61.7986 171.572 62.6798C171.904 63.5497 172.126 64.1542 172.241 64.4931C172.355 64.8321 172.476 65.2899 172.603 65.8664C172.729 66.4429 172.782 66.9235 172.761 67.3083C172.685 68.3155 172.315 69.1541 171.65 69.8242C170.478 71.0053 169.185 71.525 167.77 71.3833C166.355 71.2417 165.018 70.5453 163.757 69.2943C163.087 68.6294 162.461 67.7832 161.88 66.7559C161.322 65.7284 160.945 64.7569 160.749 63.8412C161.459 63.171 162.48 62.3242 163.811 61.3009C164.356 61.6609 164.946 62.1564 165.582 62.7876L163.911 65.1868C164.344 65.9998 164.907 66.75 165.6 67.4375Z" fill="white"/>
<path d="M67.7644 176.094L67.179 175.635L68.3232 172.902C67.67 172.223 67.1564 171.747 66.7825 171.472C66.0475 170.932 65.1133 170.474 63.9799 170.098C63.3397 170.402 62.6533 170.891 61.9208 171.563C61.1882 172.236 60.5662 172.921 60.0547 173.617C57.4403 177.176 57.1582 179.709 59.2084 181.215C60.0853 181.859 60.8763 182.242 61.5816 182.363L63.7212 180.301C64.5336 180.898 65.1194 181.398 65.4786 181.801C64.6524 183.358 63.9172 184.575 63.2731 185.451C62.7931 185.456 61.9783 185.255 60.8286 184.847C59.6918 184.449 58.6721 183.918 57.7694 183.255C53.9268 180.432 53.7484 176.648 57.2343 171.903C58.892 169.646 60.616 168.272 62.4064 167.781C64.2098 167.299 66.1365 167.811 68.1868 169.317C69.2055 170.065 69.9992 170.877 70.5679 171.751C71.0747 172.521 71.4595 173.24 71.7221 173.909C71.078 174.786 70.2046 175.773 69.1018 176.868C68.6744 176.693 68.2286 176.435 67.7644 176.094ZM81.6115 177.37L81.5291 177.596C81.2446 178.187 80.9081 178.647 80.5195 178.975C80.2627 179.029 79.9116 179.002 79.4663 178.894L77.9376 191.316L79.8672 192.564C79.5828 193.155 79.1152 193.702 78.4645 194.206L73.2092 191.677L73.5869 190.394C74.3034 190.455 74.7727 190.494 74.9949 190.512L75.3056 187.652L70.4396 185.311C69.3897 186.386 68.8364 186.946 68.7798 186.989L70.1784 187.902C70.0327 188.205 69.8051 188.53 69.4955 188.878C69.1929 189.212 68.9529 189.434 68.7757 189.544L63.5204 187.016L63.898 185.732C64.6787 185.771 65.3597 185.85 65.9412 185.97L74.923 176.602C74.0264 175.993 73.3885 175.455 73.0093 174.988C73.2105 174.57 73.4522 174.234 73.7346 173.979C74.0859 174.024 74.8479 174.248 76.0205 174.653C77.2145 175.05 78.3161 175.491 79.3254 175.977C80.349 176.469 81.1111 176.934 81.6115 177.37ZM75.96 181.975L76.7064 178.818L76.4902 178.714L74.3621 181.366L72.0449 183.58L75.6566 185.318L75.96 181.975ZM91.1378 193.273C91.5251 193.312 91.8114 193.356 91.9967 193.407C92.1974 193.461 92.6073 193.631 93.2265 193.915C93.2547 194.055 93.2326 194.472 93.1602 195.165C93.1033 195.863 93.0182 196.42 92.9049 196.837C92.7959 197.238 92.6279 197.673 92.4009 198.142L81.1683 195.09L81.306 193.759C82.1465 193.656 82.8558 193.609 83.434 193.616C83.4466 193.57 84.4869 189.467 86.555 181.308L84.7964 180.184L85.3656 178.821L91.3872 180.458C91.3717 180.453 91.3675 180.469 91.3746 180.504C91.3971 180.543 91.4091 180.621 91.4106 180.737C91.4317 180.843 91.4466 180.971 91.4551 181.123C91.4806 181.395 91.4312 181.821 91.3068 182.4C90.4858 182.31 89.9476 182.247 89.6922 182.21C88.1828 187.52 87.0638 191.486 86.3351 194.106L90.087 195.126L91.1378 193.273ZM100.318 184.574C100.127 186.388 99.9468 187.945 99.7777 189.247L102.212 189.503L102.624 187.881C103.436 187.967 104.203 188.248 104.924 188.726L104.422 193.5L102.839 193.406C102.518 192.793 102.348 192.268 102.329 191.832L99.5128 191.536C99.2465 193.76 99.054 195.437 98.9351 196.567L103.017 196.996L103.76 194.975C104.747 195.079 105.49 195.205 105.989 195.354C106.132 196.286 106.164 197.126 106.086 197.874C106.009 198.606 105.923 199.192 105.828 199.633L93.9895 198.387L93.9128 197.052C94.9889 196.763 95.6815 196.602 95.9905 196.571C96.0734 195.63 96.1965 194.308 96.3597 192.603C96.6979 188.778 96.9461 185.884 97.1043 183.922L95.1885 183.093L95.5327 181.657L107.252 182.89C107.254 183.325 107.221 183.868 107.153 184.521C107.086 185.157 106.873 186.036 106.513 187.156C106.003 187.263 105.247 187.264 104.245 187.159L103.922 184.953L100.318 184.574ZM122.773 183.697L123.952 198.314L120.891 198.576L111.898 186.386C112.234 191.063 112.496 194.589 112.684 196.966L114.352 197.04C114.408 197.693 114.284 198.403 113.98 199.167L108.169 199.665L107.842 198.368C108.703 197.925 109.353 197.636 109.791 197.503C109.787 197.455 109.354 193.244 108.493 184.871L106.455 184.419L106.521 182.944L112.738 182.412L120.766 194.299L119.516 183.928L117.478 183.476L117.545 182.001L123.762 181.468C123.746 181.47 123.748 181.486 123.766 181.516C123.801 181.545 123.839 181.614 123.88 181.723C123.936 181.815 123.994 181.93 124.054 182.07C124.172 182.317 124.272 182.734 124.354 183.321C123.552 183.518 123.025 183.643 122.773 183.697ZM137.87 185.394C138.879 188.766 138.776 191.353 137.562 193.153C137.058 193.871 136.454 194.445 135.747 194.873C135.035 195.287 134.059 195.679 132.817 196.051L126.863 197.833L126.277 196.631C127.314 195.853 127.891 195.438 128.009 195.386C127.995 195.34 126.712 191.306 124.161 183.285C123.436 183.318 122.74 183.31 122.074 183.259C121.927 182.434 121.848 181.948 121.838 181.801L127.931 179.977C129.433 179.527 130.674 179.323 131.655 179.363C132.651 179.399 133.611 179.705 134.535 180.28C136.024 181.237 137.135 182.942 137.87 185.394ZM132.357 193.759C134.104 193.236 135.135 192.468 135.45 191.455C135.78 190.437 135.635 188.894 135.016 186.825C134.397 184.756 133.625 183.35 132.701 182.607C131.773 181.85 130.558 181.696 129.056 182.146L127.377 182.648C128.862 187.832 129.978 191.698 130.724 194.247L132.357 193.759ZM144.191 173.103L144.326 173.303C144.638 173.88 144.813 174.422 144.85 174.929C144.743 175.169 144.516 175.438 144.167 175.735L153.33 184.26L155.473 183.429C155.785 184.006 155.954 184.706 155.98 185.529L150.849 188.301L150.032 187.243C150.501 186.698 150.808 186.341 150.953 186.172L148.819 184.242L144.069 186.81C144.323 188.291 144.452 189.067 144.454 189.138L146.014 188.541C146.173 188.837 146.304 189.212 146.404 189.667C146.497 190.108 146.536 190.432 146.521 190.641L141.39 193.413L140.573 192.355C141.061 191.745 141.525 191.24 141.963 190.839L139.645 178.07C138.626 178.439 137.816 178.64 137.216 178.673C136.996 178.265 136.865 177.872 136.824 177.494C137.067 177.235 137.695 176.75 138.711 176.038C139.733 175.304 140.736 174.67 141.722 174.138C142.721 173.598 143.544 173.253 144.191 173.103ZM144.605 180.382L142.486 177.926L142.275 178.04L143.174 181.319L143.608 184.494L147.134 182.589L144.605 180.382ZM150.964 167.975C153.101 166.166 154.776 165.272 155.989 165.293C157.089 165.305 158.125 165.885 159.097 167.033C160.606 168.816 160.707 170.817 159.398 173.035L165.401 174.777L167.116 173.608C167.56 174.133 167.865 174.777 168.028 175.54L165.372 177.789L157.145 175.351L156.559 175.848L159.668 179.631L161.129 178.645C161.553 179.146 161.862 179.796 162.057 180.596L157.532 184.426L156.515 183.558C156.999 182.645 157.362 182.033 157.604 181.724C156.308 180.243 154.742 178.455 152.906 176.362C151.071 174.268 149.842 172.866 149.22 172.156L147.312 172.985C147.086 172.694 146.826 172.275 146.531 171.728L150.964 167.975ZM154.07 168.71C153.619 168.945 153.076 169.331 152.441 169.869L151.928 170.303C153.33 172.009 154.388 173.283 155.102 174.126L155.984 173.348C156.694 172.725 157.137 172.098 157.315 171.466C157.494 170.811 157.232 170.068 156.529 169.238C155.826 168.407 155.007 168.232 154.07 168.71Z" fill="white"/>
<circle cx="106.802" cy="17.5" r="5.5" fill="url(#paint0_radial_2431_610)"/>
<circle cx="192.802" cy="59.5" r="5.5" fill="url(#paint1_radial_2431_610)"/>
<circle cx="192.802" cy="171.5" r="5.5" fill="url(#paint2_radial_2431_610)"/>
<circle cx="105.802" cy="218.5" r="5.5" fill="url(#paint3_radial_2431_610)"/>
<circle cx="22.8022" cy="171.5" r="5.5" fill="url(#paint4_radial_2431_610)"/>
<circle cx="22.8022" cy="59.5" r="5.5" fill="url(#paint5_radial_2431_610)"/>
<path fillRule="evenodd" clipRule="evenodd" d="M107.229 67.8628C108.029 66.8413 109.575 66.8413 110.376 67.8628L128.481 90.9575C129.51 92.2701 128.574 94.1909 126.906 94.1909H122.059L135.627 113.312C136.567 114.636 135.62 116.469 133.996 116.469H131.077L143.559 132.482C144.583 133.795 143.646 135.712 141.981 135.712H138.171L149.287 148.747C150.395 150.045 149.472 152.044 147.766 152.044H69.8391C68.1328 152.044 67.2104 150.045 68.3176 148.747L79.4338 135.712H75.6242C73.9589 135.712 73.0223 133.795 74.0461 132.482L86.5275 116.469H83.6633C82.0395 116.469 81.0921 114.636 82.0314 113.312L95.6008 94.1909H90.6984C89.0307 94.1909 88.0954 92.2701 89.1242 90.9575L107.229 67.8628Z" fill="#CB4743"/>
<mask id="path-11-outside-1_2431_610" maskUnits="userSpaceOnUse" x="31.3022" y="104" width="152" height="30" fill="black">
<rect fill="white" x="31.3022" y="104" width="152" height="30"/>
<path d="M42.2558 127.64C44.9625 127.64 46.3158 126.485 46.3158 124.175C46.3158 123.195 45.8025 122.367 44.7758 121.69C44.0292 121.177 43.0025 120.628 41.6958 120.045C40.4125 119.438 39.4442 118.96 38.7908 118.61C38.1608 118.26 37.4258 117.77 36.5858 117.14C34.9758 115.903 34.1708 114.363 34.1708 112.52C34.1708 110.677 34.8825 109.148 36.3058 107.935C37.7525 106.698 39.7008 106.08 42.1508 106.08C44.6008 106.08 47.2142 106.862 49.9908 108.425C49.9908 110.105 49.8158 111.925 49.4658 113.885C48.7192 114.118 47.6108 114.235 46.1408 114.235L45.1258 110.07C44.2625 109.813 43.3175 109.685 42.2908 109.685C41.2642 109.685 40.4708 109.907 39.9108 110.35C39.3508 110.793 39.0708 111.458 39.0708 112.345C39.0708 113.208 39.5025 113.99 40.3658 114.69C41.2525 115.367 42.3142 115.997 43.5508 116.58C44.7875 117.14 45.6392 117.537 46.1058 117.77C46.5725 118.003 47.1675 118.353 47.8908 118.82C48.6142 119.287 49.1625 119.73 49.5358 120.15C50.4925 121.27 50.9708 122.518 50.9708 123.895C50.9708 126.322 50.1658 128.188 48.5558 129.495C46.9458 130.802 44.8458 131.455 42.2558 131.455C40.8792 131.455 39.3625 131.222 37.7058 130.755C36.0725 130.265 34.6842 129.647 33.5408 128.9C33.5875 127.477 33.7742 125.552 34.1008 123.125C35.0342 122.938 36.1542 122.845 37.4608 122.845L38.1958 127.045C39.4792 127.442 40.8325 127.64 42.2558 127.64ZM73.6943 106.885L73.7293 107.235C73.7293 108.192 73.5776 109.008 73.2743 109.685C72.971 109.918 72.4926 110.105 71.8393 110.245L77.6843 127.535L81.0093 127.955C81.0093 128.912 80.741 129.927 80.2043 131H71.6993L71.3843 129.075C72.3643 128.702 73.006 128.457 73.3093 128.34L71.9093 124.385H64.0343C63.3343 126.462 62.961 127.547 62.9143 127.64L65.3293 127.955C65.3293 128.445 65.236 129.017 65.0493 129.67C64.8626 130.3 64.6876 130.743 64.5243 131H56.0193L55.7043 129.075C56.7543 128.632 57.6993 128.305 58.5393 128.095L64.4193 110.105C62.856 109.872 61.6776 109.568 60.8843 109.195C60.8843 108.518 60.9893 107.923 61.1993 107.41C61.6893 107.247 62.8326 107.06 64.6293 106.85C66.4493 106.617 68.176 106.5 69.8093 106.5C71.466 106.5 72.761 106.628 73.6943 106.885ZM69.1793 116.51L68.1643 111.89H67.8143L66.6943 116.72L65.0493 121.095H70.8943L69.1793 116.51ZM109.753 109.615L109.648 131H105.168L93.6183 112.17C93.525 119.007 93.4667 124.163 93.4433 127.64L95.8583 127.955C95.8583 128.912 95.59 129.927 95.0533 131H86.5483L86.2333 129.075C87.54 128.538 88.52 128.2 89.1733 128.06C89.1733 127.99 89.0683 121.818 88.8583 109.545L85.9533 108.635L86.2333 106.5H95.3333L105.518 124.77L104.993 109.545L102.088 108.635L102.368 106.5H111.468C111.445 106.5 111.445 106.523 111.468 106.57C111.515 106.617 111.562 106.722 111.608 106.885C111.678 107.025 111.748 107.2 111.818 107.41C111.958 107.783 112.052 108.402 112.098 109.265C110.908 109.452 110.127 109.568 109.753 109.615ZM127.189 106.5C127.165 106.5 127.165 106.523 127.189 106.57C127.235 106.617 127.282 106.722 127.329 106.885C127.399 107.025 127.469 107.2 127.539 107.41C127.679 107.783 127.772 108.402 127.819 109.265C126.629 109.452 125.847 109.568 125.474 109.615L125.299 127.64L127.714 127.955C127.714 128.912 127.445 129.927 126.909 131H118.404L118.089 129.075C119.395 128.538 120.375 128.2 121.029 128.06C121.005 126.683 120.97 124.747 120.924 122.25C120.854 116.65 120.784 112.415 120.714 109.545L117.809 108.635L118.089 106.5H127.189ZM133.94 112.87C133.566 111.26 133.38 109.988 133.38 109.055C133.38 108.122 133.415 107.27 133.485 106.5H153.82C153.913 107.62 153.96 108.378 153.96 108.775C153.96 109.778 153.773 111.143 153.4 112.87C152.723 113.057 151.615 113.15 150.075 113.15L149.27 109.615H146.295C146.271 110.502 146.166 116.51 145.98 127.64L148.5 127.955C148.5 129.028 148.231 130.043 147.695 131H139.19L138.875 129.075C140.485 128.468 141.5 128.13 141.92 128.06C141.92 127.967 141.78 121.83 141.5 109.65H138.035L137.265 113.08C135.888 113.08 134.78 113.01 133.94 112.87ZM172.198 121.83L172.163 127.64L174.578 127.955C174.578 128.912 174.31 129.927 173.773 131H165.268L164.953 129.075C166.563 128.445 167.543 128.107 167.893 128.06C167.893 126.683 167.87 124.618 167.823 121.865L161.208 109.58L158.128 108.635L158.408 106.5H167.508C167.928 107.27 168.138 108.192 168.138 109.265C167.601 109.358 166.913 109.463 166.073 109.58L169.818 118.015H170.133L174.123 109.545C173.33 109.382 172.361 109.078 171.218 108.635L171.463 106.5H180.598C180.995 107.083 181.205 108.005 181.228 109.265C180.318 109.452 179.408 109.58 178.498 109.65L172.198 121.83Z"/>
</mask>
<path d="M42.2558 127.64C44.9625 127.64 46.3158 126.485 46.3158 124.175C46.3158 123.195 45.8025 122.367 44.7758 121.69C44.0292 121.177 43.0025 120.628 41.6958 120.045C40.4125 119.438 39.4442 118.96 38.7908 118.61C38.1608 118.26 37.4258 117.77 36.5858 117.14C34.9758 115.903 34.1708 114.363 34.1708 112.52C34.1708 110.677 34.8825 109.148 36.3058 107.935C37.7525 106.698 39.7008 106.08 42.1508 106.08C44.6008 106.08 47.2142 106.862 49.9908 108.425C49.9908 110.105 49.8158 111.925 49.4658 113.885C48.7192 114.118 47.6108 114.235 46.1408 114.235L45.1258 110.07C44.2625 109.813 43.3175 109.685 42.2908 109.685C41.2642 109.685 40.4708 109.907 39.9108 110.35C39.3508 110.793 39.0708 111.458 39.0708 112.345C39.0708 113.208 39.5025 113.99 40.3658 114.69C41.2525 115.367 42.3142 115.997 43.5508 116.58C44.7875 117.14 45.6392 117.537 46.1058 117.77C46.5725 118.003 47.1675 118.353 47.8908 118.82C48.6142 119.287 49.1625 119.73 49.5358 120.15C50.4925 121.27 50.9708 122.518 50.9708 123.895C50.9708 126.322 50.1658 128.188 48.5558 129.495C46.9458 130.802 44.8458 131.455 42.2558 131.455C40.8792 131.455 39.3625 131.222 37.7058 130.755C36.0725 130.265 34.6842 129.647 33.5408 128.9C33.5875 127.477 33.7742 125.552 34.1008 123.125C35.0342 122.938 36.1542 122.845 37.4608 122.845L38.1958 127.045C39.4792 127.442 40.8325 127.64 42.2558 127.64ZM73.6943 106.885L73.7293 107.235C73.7293 108.192 73.5776 109.008 73.2743 109.685C72.971 109.918 72.4926 110.105 71.8393 110.245L77.6843 127.535L81.0093 127.955C81.0093 128.912 80.741 129.927 80.2043 131H71.6993L71.3843 129.075C72.3643 128.702 73.006 128.457 73.3093 128.34L71.9093 124.385H64.0343C63.3343 126.462 62.961 127.547 62.9143 127.64L65.3293 127.955C65.3293 128.445 65.236 129.017 65.0493 129.67C64.8626 130.3 64.6876 130.743 64.5243 131H56.0193L55.7043 129.075C56.7543 128.632 57.6993 128.305 58.5393 128.095L64.4193 110.105C62.856 109.872 61.6776 109.568 60.8843 109.195C60.8843 108.518 60.9893 107.923 61.1993 107.41C61.6893 107.247 62.8326 107.06 64.6293 106.85C66.4493 106.617 68.176 106.5 69.8093 106.5C71.466 106.5 72.761 106.628 73.6943 106.885ZM69.1793 116.51L68.1643 111.89H67.8143L66.6943 116.72L65.0493 121.095H70.8943L69.1793 116.51ZM109.753 109.615L109.648 131H105.168L93.6183 112.17C93.525 119.007 93.4667 124.163 93.4433 127.64L95.8583 127.955C95.8583 128.912 95.59 129.927 95.0533 131H86.5483L86.2333 129.075C87.54 128.538 88.52 128.2 89.1733 128.06C89.1733 127.99 89.0683 121.818 88.8583 109.545L85.9533 108.635L86.2333 106.5H95.3333L105.518 124.77L104.993 109.545L102.088 108.635L102.368 106.5H111.468C111.445 106.5 111.445 106.523 111.468 106.57C111.515 106.617 111.562 106.722 111.608 106.885C111.678 107.025 111.748 107.2 111.818 107.41C111.958 107.783 112.052 108.402 112.098 109.265C110.908 109.452 110.127 109.568 109.753 109.615ZM127.189 106.5C127.165 106.5 127.165 106.523 127.189 106.57C127.235 106.617 127.282 106.722 127.329 106.885C127.399 107.025 127.469 107.2 127.539 107.41C127.679 107.783 127.772 108.402 127.819 109.265C126.629 109.452 125.847 109.568 125.474 109.615L125.299 127.64L127.714 127.955C127.714 128.912 127.445 129.927 126.909 131H118.404L118.089 129.075C119.395 128.538 120.375 128.2 121.029 128.06C121.005 126.683 120.97 124.747 120.924 122.25C120.854 116.65 120.784 112.415 120.714 109.545L117.809 108.635L118.089 106.5H127.189ZM133.94 112.87C133.566 111.26 133.38 109.988 133.38 109.055C133.38 108.122 133.415 107.27 133.485 106.5H153.82C153.913 107.62 153.96 108.378 153.96 108.775C153.96 109.778 153.773 111.143 153.4 112.87C152.723 113.057 151.615 113.15 150.075 113.15L149.27 109.615H146.295C146.271 110.502 146.166 116.51 145.98 127.64L148.5 127.955C148.5 129.028 148.231 130.043 147.695 131H139.19L138.875 129.075C140.485 128.468 141.5 128.13 141.92 128.06C141.92 127.967 141.78 121.83 141.5 109.65H138.035L137.265 113.08C135.888 113.08 134.78 113.01 133.94 112.87ZM172.198 121.83L172.163 127.64L174.578 127.955C174.578 128.912 174.31 129.927 173.773 131H165.268L164.953 129.075C166.563 128.445 167.543 128.107 167.893 128.06C167.893 126.683 167.87 124.618 167.823 121.865L161.208 109.58L158.128 108.635L158.408 106.5H167.508C167.928 107.27 168.138 108.192 168.138 109.265C167.601 109.358 166.913 109.463 166.073 109.58L169.818 118.015H170.133L174.123 109.545C173.33 109.382 172.361 109.078 171.218 108.635L171.463 106.5H180.598C180.995 107.083 181.205 108.005 181.228 109.265C180.318 109.452 179.408 109.58 178.498 109.65L172.198 121.83Z" fill="#FFD895" fillOpacity="0.9"/>
<path d="M44.7758 121.69L43.6428 123.338L43.6589 123.349L43.6752 123.36L44.7758 121.69ZM41.6958 120.045L40.8411 121.853L40.8607 121.862L40.8805 121.871L41.6958 120.045ZM38.7908 118.61L37.8195 120.358L37.8329 120.366L37.8464 120.373L38.7908 118.61ZM36.5858 117.14L35.3675 118.726L35.3766 118.733L35.3858 118.74L36.5858 117.14ZM36.3058 107.935L37.6033 109.457L37.6054 109.455L36.3058 107.935ZM49.9908 108.425H51.9908V107.256L50.972 106.682L49.9908 108.425ZM49.4658 113.885L50.0624 115.794L51.2212 115.432L51.4347 114.237L49.4658 113.885ZM46.1408 114.235L44.1977 114.709L44.5697 116.235H46.1408V114.235ZM45.1258 110.07L47.069 109.596L46.7969 108.48L45.6958 108.153L45.1258 110.07ZM40.3658 114.69L39.1062 116.244L39.1291 116.262L39.1525 116.28L40.3658 114.69ZM43.5508 116.58L42.6976 118.389L42.7116 118.395L42.7258 118.402L43.5508 116.58ZM47.8908 118.82L46.8066 120.501V120.501L47.8908 118.82ZM49.5358 120.15L51.0566 118.851L51.0438 118.836L51.0306 118.821L49.5358 120.15ZM48.5558 129.495L49.8162 131.048L48.5558 129.495ZM37.7058 130.755L37.1311 132.671L37.1473 132.676L37.1635 132.68L37.7058 130.755ZM33.5408 128.9L31.5419 128.834L31.505 129.959L32.4472 130.575L33.5408 128.9ZM34.1008 123.125L33.7086 121.164L32.3091 121.444L32.1187 122.858L34.1008 123.125ZM37.4608 122.845L39.4309 122.5L39.1412 120.845H37.4608V122.845ZM38.1958 127.045L36.2258 127.39L36.4366 128.595L37.6052 128.956L38.1958 127.045ZM42.2558 127.64V129.64C43.8468 129.64 45.4131 129.307 46.5992 128.295C47.8459 127.231 48.3158 125.728 48.3158 124.175H46.3158H44.3158C44.3158 124.932 44.1091 125.161 44.0025 125.252C43.8352 125.395 43.3715 125.64 42.2558 125.64V127.64ZM46.3158 124.175H48.3158C48.3158 122.349 47.3023 120.96 45.8764 120.02L44.7758 121.69L43.6752 123.36C44.3026 123.773 44.3158 124.041 44.3158 124.175H46.3158ZM44.7758 121.69L45.9089 120.042C45.0217 119.432 43.8731 118.827 42.5111 118.219L41.6958 120.045L40.8805 121.871C42.1319 122.43 43.0366 122.921 43.6428 123.338L44.7758 121.69ZM41.6958 120.045L42.5506 118.237C41.2755 117.634 40.3435 117.173 39.7353 116.847L38.7908 118.61L37.8464 120.373C38.5449 120.747 39.5495 121.243 40.8411 121.853L41.6958 120.045ZM38.7908 118.61L39.7621 116.862C39.2385 116.571 38.5827 116.138 37.7858 115.54L36.5858 117.14L35.3858 118.74C36.2689 119.402 37.0831 119.949 37.8195 120.358L38.7908 118.61ZM36.5858 117.14L37.8041 115.554C36.6296 114.652 36.1708 113.673 36.1708 112.52H34.1708H32.1708C32.1708 115.054 33.3221 117.155 35.3675 118.726L36.5858 117.14ZM34.1708 112.52H36.1708C36.1708 111.272 36.6182 110.297 37.6033 109.457L36.3058 107.935L35.0084 106.413C33.1468 108 32.1708 110.081 32.1708 112.52H34.1708ZM36.3058 107.935L37.6054 109.455C38.596 108.608 40.0374 108.08 42.1508 108.08V106.08V104.08C39.3642 104.08 36.9089 104.788 35.0063 106.415L36.3058 107.935ZM42.1508 106.08V108.08C44.1689 108.08 46.4449 108.724 49.0096 110.168L49.9908 108.425L50.972 106.682C47.9835 105 45.0328 104.08 42.1508 104.08V106.08ZM49.9908 108.425H47.9908C47.9908 109.968 47.8299 111.669 47.497 113.533L49.4658 113.885L51.4347 114.237C51.8017 112.181 51.9908 110.242 51.9908 108.425H49.9908ZM49.4658 113.885L48.8693 111.976C48.4173 112.117 47.5532 112.235 46.1408 112.235V114.235V116.235C47.6684 116.235 49.021 116.119 50.0624 115.794L49.4658 113.885ZM46.1408 114.235L48.084 113.761L47.069 109.596L45.1258 110.07L43.1827 110.544L44.1977 114.709L46.1408 114.235ZM45.1258 110.07L45.6958 108.153C44.6237 107.834 43.484 107.685 42.2908 107.685V109.685V111.685C43.151 111.685 43.9013 111.792 44.5559 111.987L45.1258 110.07ZM42.2908 109.685V107.685C41.0052 107.685 39.7083 107.959 38.6694 108.782L39.9108 110.35L41.1522 111.918C41.2333 111.854 41.5231 111.685 42.2908 111.685V109.685ZM39.9108 110.35L38.6694 108.782C37.5159 109.695 37.0708 111.01 37.0708 112.345H39.0708H41.0708C41.0708 112.109 41.1083 111.995 41.1241 111.957C41.1348 111.932 41.1392 111.928 41.1522 111.918L39.9108 110.35ZM39.0708 112.345H37.0708C37.0708 113.977 37.9203 115.282 39.1062 116.244L40.3658 114.69L41.6254 113.136C41.0847 112.698 41.0708 112.44 41.0708 112.345H39.0708ZM40.3658 114.69L39.1525 116.28C40.1729 117.059 41.3609 117.758 42.6976 118.389L43.5508 116.58L44.4041 114.771C43.2674 114.235 42.3321 113.675 41.5792 113.1L40.3658 114.69ZM43.5508 116.58L42.7258 118.402C43.9645 118.963 44.7835 119.345 45.2114 119.559L46.1058 117.77L47.0002 115.981C46.4948 115.728 45.6105 115.317 44.3758 114.758L43.5508 116.58ZM46.1058 117.77L45.2114 119.559C45.5847 119.746 46.1107 120.052 46.8066 120.501L47.8908 118.82L48.9751 117.139C48.2243 116.655 47.5602 116.261 47.0002 115.981L46.1058 117.77ZM47.8908 118.82L46.8066 120.501C47.4493 120.915 47.8338 121.246 48.041 121.479L49.5358 120.15L51.0306 118.821C50.4912 118.214 49.779 117.658 48.9751 117.139L47.8908 118.82ZM49.5358 120.15L48.0151 121.449C48.6858 122.234 48.9708 123.029 48.9708 123.895H50.9708H52.9708C52.9708 122.007 52.2991 120.306 51.0566 118.851L49.5358 120.15ZM50.9708 123.895H48.9708C48.9708 125.834 48.3553 127.082 47.2955 127.942L48.5558 129.495L49.8162 131.048C51.9764 129.295 52.9708 126.81 52.9708 123.895H50.9708ZM48.5558 129.495L47.2955 127.942C46.1233 128.893 44.5041 129.455 42.2558 129.455V131.455V133.455C45.1876 133.455 47.7683 132.71 49.8162 131.048L48.5558 129.495ZM42.2558 131.455V129.455C41.1015 129.455 39.7703 129.259 38.2481 128.83L37.7058 130.755L37.1635 132.68C38.9547 133.185 40.6568 133.455 42.2558 133.455V131.455ZM37.7058 130.755L38.2805 128.839C36.7873 128.391 35.5832 127.845 34.6344 127.225L33.5408 128.9L32.4472 130.575C33.7852 131.448 35.3577 132.139 37.1311 132.671L37.7058 130.755ZM33.5408 128.9L35.5397 128.966C35.5832 127.641 35.7599 125.792 36.0829 123.392L34.1008 123.125L32.1187 122.858C31.7884 125.312 31.5918 127.313 31.5419 128.834L33.5408 128.9ZM34.1008 123.125L34.4931 125.086C35.2596 124.933 36.2409 124.845 37.4608 124.845V122.845V120.845C36.0674 120.845 34.8087 120.944 33.7086 121.164L34.1008 123.125ZM37.4608 122.845L35.4908 123.19L36.2258 127.39L38.1958 127.045L40.1659 126.7L39.4309 122.5L37.4608 122.845ZM38.1958 127.045L37.6052 128.956C39.0909 129.415 40.6442 129.64 42.2558 129.64V127.64V125.64C41.0208 125.64 39.8674 125.468 38.7864 125.134L38.1958 127.045ZM73.6943 106.885L75.6844 106.686L75.5478 105.32L74.2246 104.957L73.6943 106.885ZM73.7293 107.235H75.7293V107.135L75.7194 107.036L73.7293 107.235ZM73.2743 109.685L74.4937 111.27L74.8932 110.963L75.0993 110.503L73.2743 109.685ZM71.8393 110.245L71.4202 108.289L69.226 108.76L69.9446 110.886L71.8393 110.245ZM77.6843 127.535L75.7896 128.176L76.1908 129.362L77.4337 129.519L77.6843 127.535ZM81.0093 127.955H83.0093V126.192L81.2599 125.971L81.0093 127.955ZM80.2043 131V133H81.4404L81.9932 131.894L80.2043 131ZM71.6993 131L69.7255 131.323L70 133H71.6993V131ZM71.3843 129.075L70.6723 127.206L69.147 127.787L69.4105 129.398L71.3843 129.075ZM73.3093 128.34L74.0273 130.207L75.8443 129.508L75.1947 127.673L73.3093 128.34ZM71.9093 124.385L73.7947 123.718L73.3229 122.385H71.9093V124.385ZM64.0343 124.385V122.385H62.5979L62.1391 123.746L64.0343 124.385ZM62.9143 127.64L61.1254 126.746L59.8684 129.26L62.6556 129.623L62.9143 127.64ZM65.3293 127.955H67.3293V126.199L65.588 125.972L65.3293 127.955ZM65.0493 129.67L66.9669 130.238L66.9697 130.229L66.9723 130.219L65.0493 129.67ZM64.5243 131V133H65.6222L66.2116 132.074L64.5243 131ZM56.0193 131L54.0455 131.323L54.32 133H56.0193V131ZM55.7043 129.075L54.9264 127.233L53.4764 127.845L53.7305 129.398L55.7043 129.075ZM58.5393 128.095L59.0244 130.035L60.0969 129.767L60.4403 128.716L58.5393 128.095ZM64.4193 110.105L66.3203 110.726L67.0557 108.476L64.7145 108.127L64.4193 110.105ZM60.8843 109.195H58.8843V110.464L60.0327 111.005L60.8843 109.195ZM61.1993 107.41L60.5668 105.513L59.6958 105.803L59.3482 106.653L61.1993 107.41ZM64.6293 106.85L64.8615 108.836L64.8726 108.835L64.8836 108.834L64.6293 106.85ZM69.1793 116.51L67.2259 116.939L67.2563 117.078L67.3061 117.211L69.1793 116.51ZM68.1643 111.89L70.1177 111.461L69.7726 109.89H68.1643V111.89ZM67.8143 111.89V109.89H66.225L65.866 111.438L67.8143 111.89ZM66.6943 116.72L68.5663 117.424L68.6128 117.3L68.6426 117.172L66.6943 116.72ZM65.0493 121.095L63.1773 120.391L62.1606 123.095H65.0493V121.095ZM70.8943 121.095V123.095H73.7777L72.7675 120.394L70.8943 121.095ZM73.6943 106.885L71.7042 107.084L71.7392 107.434L73.7293 107.235L75.7194 107.036L75.6844 106.686L73.6943 106.885ZM73.7293 107.235H71.7293C71.7293 107.988 71.609 108.511 71.4493 108.867L73.2743 109.685L75.0993 110.503C75.5463 109.506 75.7293 108.395 75.7293 107.235H73.7293ZM73.2743 109.685L72.0549 108.1C72.0946 108.069 72.0798 108.09 71.961 108.137C71.8464 108.182 71.6713 108.236 71.4202 108.289L71.8393 110.245L72.2584 112.201C73.0166 112.038 73.8397 111.773 74.4937 111.27L73.2743 109.685ZM71.8393 110.245L69.9446 110.886L75.7896 128.176L77.6843 127.535L79.579 126.894L73.734 109.604L71.8393 110.245ZM77.6843 127.535L77.4337 129.519L80.7587 129.939L81.0093 127.955L81.2599 125.971L77.9349 125.551L77.6843 127.535ZM81.0093 127.955H79.0093C79.0093 128.532 78.8477 129.241 78.4154 130.106L80.2043 131L81.9932 131.894C82.6342 130.612 83.0093 129.291 83.0093 127.955H81.0093ZM80.2043 131V129H71.6993V131V133H80.2043V131ZM71.6993 131L73.673 130.677L73.358 128.752L71.3843 129.075L69.4105 129.398L69.7255 131.323L71.6993 131ZM71.3843 129.075L72.0963 130.944C73.0756 130.571 73.7204 130.325 74.0273 130.207L73.3093 128.34L72.5913 126.473C72.2915 126.589 71.653 126.832 70.6723 127.206L71.3843 129.075ZM73.3093 128.34L75.1947 127.673L73.7947 123.718L71.9093 124.385L70.0239 125.052L71.4239 129.007L73.3093 128.34ZM71.9093 124.385V122.385H64.0343V124.385V126.385H71.9093V124.385ZM64.0343 124.385L62.1391 123.746C61.7894 124.783 61.5227 125.569 61.3381 126.106C61.2456 126.375 61.1754 126.576 61.1266 126.713C61.102 126.782 61.0852 126.828 61.0751 126.855C61.0488 126.924 61.0754 126.846 61.1254 126.746L62.9143 127.64L64.7032 128.534C64.7843 128.372 64.8675 128.131 64.8945 128.056C64.9507 127.898 65.0264 127.68 65.1205 127.407C65.3092 126.858 65.5792 126.063 65.9295 125.024L64.0343 124.385ZM62.9143 127.64L62.6556 129.623L65.0706 129.938L65.3293 127.955L65.588 125.972L63.173 125.657L62.9143 127.64ZM65.3293 127.955H63.3293C63.3293 128.203 63.28 128.582 63.1262 129.121L65.0493 129.67L66.9723 130.219C67.1919 129.451 67.3293 128.687 67.3293 127.955H65.3293ZM65.0493 129.67L63.1317 129.102C63.0493 129.38 62.9774 129.59 62.9177 129.741C62.8539 129.902 62.8233 129.948 62.837 129.926L64.5243 131L66.2116 132.074C66.5355 131.565 66.7739 130.89 66.9669 130.238L65.0493 129.67ZM64.5243 131V129H56.0193V131V133H64.5243V131ZM56.0193 131L57.993 130.677L57.678 128.752L55.7043 129.075L53.7305 129.398L54.0455 131.323L56.0193 131ZM55.7043 129.075L56.4822 130.917C57.4651 130.503 58.3099 130.214 59.0244 130.035L58.5393 128.095L58.0542 126.155C57.0887 126.396 56.0435 126.761 54.9264 127.233L55.7043 129.075ZM58.5393 128.095L60.4403 128.716L66.3203 110.726L64.4193 110.105L62.5183 109.484L56.6383 127.474L58.5393 128.095ZM64.4193 110.105L64.7145 108.127C63.2158 107.903 62.2651 107.634 61.7359 107.385L60.8843 109.195L60.0327 111.005C61.0901 111.502 62.4962 111.84 64.1241 112.083L64.4193 110.105ZM60.8843 109.195H62.8843C62.8843 108.722 62.9578 108.394 63.0504 108.167L61.1993 107.41L59.3482 106.653C59.0208 107.453 58.8843 108.314 58.8843 109.195H60.8843ZM61.1993 107.41L61.8318 109.307C62.0867 109.222 63.0064 109.053 64.8615 108.836L64.6293 106.85L64.3971 104.864C62.6589 105.067 61.2919 105.271 60.5668 105.513L61.1993 107.41ZM64.6293 106.85L64.8836 108.834C66.6294 108.61 68.2706 108.5 69.8093 108.5V106.5V104.5C68.0813 104.5 66.2692 104.623 64.375 104.866L64.6293 106.85ZM69.8093 106.5V108.5C71.3945 108.5 72.4832 108.626 73.164 108.813L73.6943 106.885L74.2246 104.957C73.0387 104.63 71.5374 104.5 69.8093 104.5V106.5ZM69.1793 116.51L71.1327 116.081L70.1177 111.461L68.1643 111.89L66.2109 112.319L67.2259 116.939L69.1793 116.51ZM68.1643 111.89V109.89H67.8143V111.89V113.89H68.1643V111.89ZM67.8143 111.89L65.866 111.438L64.746 116.268L66.6943 116.72L68.6426 117.172L69.7626 112.342L67.8143 111.89ZM66.6943 116.72L64.8223 116.016L63.1773 120.391L65.0493 121.095L66.9213 121.799L68.5663 117.424L66.6943 116.72ZM65.0493 121.095V123.095H70.8943V121.095V119.095H65.0493V121.095ZM70.8943 121.095L72.7675 120.394L71.0525 115.809L69.1793 116.51L67.3061 117.211L69.0211 121.796L70.8943 121.095ZM109.753 109.615L109.505 107.63L107.762 107.848L107.753 109.605L109.753 109.615ZM109.648 131V133H111.639L111.648 131.01L109.648 131ZM105.168 131L103.463 132.046L104.049 133H105.168V131ZM93.6183 112.17L95.3232 111.124L91.7128 105.238L91.6185 112.143L93.6183 112.17ZM93.4433 127.64L91.4434 127.627L91.4315 129.395L93.1846 129.623L93.4433 127.64ZM95.8583 127.955H97.8583V126.199L96.117 125.972L95.8583 127.955ZM95.0533 131V133H96.2894L96.8422 131.894L95.0533 131ZM86.5483 131L84.5746 131.323L84.849 133H86.5483V131ZM86.2333 129.075L85.4735 127.225L84.0028 127.829L84.2596 129.398L86.2333 129.075ZM89.1733 128.06L89.5924 130.016L91.1733 129.677V128.06H89.1733ZM88.8583 109.545L90.858 109.511L90.8333 108.068L89.4562 107.636L88.8583 109.545ZM85.9533 108.635L83.9703 108.375L83.7518 110.041L85.3555 110.544L85.9533 108.635ZM86.2333 106.5V104.5H84.4785L84.2503 106.24L86.2333 106.5ZM95.3333 106.5L97.0802 105.526L96.5082 104.5H95.3333V106.5ZM105.518 124.77L103.771 125.744L107.517 124.701L105.518 124.77ZM104.993 109.545L106.992 109.476L106.943 108.06L105.591 107.636L104.993 109.545ZM102.088 108.635L100.105 108.375L99.8868 110.041L101.49 110.544L102.088 108.635ZM102.368 106.5V104.5H100.613L100.385 106.24L102.368 106.5ZM111.468 106.57L109.679 107.464L109.825 107.755L110.054 107.984L111.468 106.57ZM111.608 106.885L109.685 107.434L109.736 107.613L109.819 107.779L111.608 106.885ZM111.818 107.41L109.921 108.042L109.933 108.078L109.946 108.112L111.818 107.41ZM112.098 109.265L112.408 111.241L114.193 110.961L114.095 109.157L112.098 109.265ZM109.753 109.615L107.753 109.605L107.648 130.99L109.648 131L111.648 131.01L111.753 109.625L109.753 109.615ZM109.648 131V129H105.168V131V133H109.648V131ZM105.168 131L106.873 129.954L95.3232 111.124L93.6183 112.17L91.9135 113.216L103.463 132.046L105.168 131ZM93.6183 112.17L91.6185 112.143C91.5252 118.98 91.4667 124.143 91.4434 127.627L93.4433 127.64L95.4433 127.653C95.4666 124.184 95.5248 119.033 95.6181 112.197L93.6183 112.17ZM93.4433 127.64L93.1846 129.623L95.5996 129.938L95.8583 127.955L96.117 125.972L93.702 125.657L93.4433 127.64ZM95.8583 127.955H93.8583C93.8583 128.532 93.6967 129.241 93.2645 130.106L95.0533 131L96.8422 131.894C97.4832 130.612 97.8583 129.291 97.8583 127.955H95.8583ZM95.0533 131V129H86.5483V131V133H95.0533V131ZM86.5483 131L88.5221 130.677L88.2071 128.752L86.2333 129.075L84.2596 129.398L84.5746 131.323L86.5483 131ZM86.2333 129.075L86.9932 130.925C88.2831 130.395 89.1244 130.116 89.5924 130.016L89.1733 128.06L88.7543 126.104C87.9156 126.284 86.7969 126.681 85.4735 127.225L86.2333 129.075ZM89.1733 128.06H91.1733C91.1733 127.967 91.0676 121.762 90.858 109.511L88.8583 109.545L86.8586 109.579C86.9636 115.716 87.0424 120.327 87.0949 123.413C87.1211 124.956 87.1408 126.117 87.1539 126.897C87.1674 127.698 87.1733 128.065 87.1733 128.06H89.1733ZM88.8583 109.545L89.4562 107.636L86.5512 106.726L85.9533 108.635L85.3555 110.544L88.2605 111.454L88.8583 109.545ZM85.9533 108.635L87.9363 108.895L88.2163 106.76L86.2333 106.5L84.2503 106.24L83.9703 108.375L85.9533 108.635ZM86.2333 106.5V108.5H95.3333V106.5V104.5H86.2333V106.5ZM95.3333 106.5L93.5864 107.474L103.771 125.744L105.518 124.77L107.265 123.796L97.0802 105.526L95.3333 106.5ZM105.518 124.77L107.517 124.701L106.992 109.476L104.993 109.545L102.995 109.614L103.52 124.839L105.518 124.77ZM104.993 109.545L105.591 107.636L102.686 106.726L102.088 108.635L101.49 110.544L104.395 111.454L104.993 109.545ZM102.088 108.635L104.071 108.895L104.351 106.76L102.368 106.5L100.385 106.24L100.105 108.375L102.088 108.635ZM102.368 106.5V108.5H111.468V106.5V104.5H102.368V106.5ZM111.468 106.5V104.5C111.154 104.5 110.551 104.58 110.041 105.09C109.531 105.6 109.451 106.203 109.451 106.517C109.451 107.039 109.66 107.425 109.679 107.464L111.468 106.57L113.257 105.676C113.278 105.717 113.316 105.798 113.353 105.907C113.383 105.998 113.451 106.221 113.451 106.517C113.451 106.82 113.374 107.414 112.869 107.919C112.365 108.423 111.771 108.5 111.468 108.5V106.5ZM111.468 106.57L110.054 107.984C109.925 107.855 109.844 107.735 109.8 107.664C109.754 107.589 109.725 107.529 109.711 107.496C109.683 107.433 109.677 107.404 109.685 107.434L111.608 106.885L113.531 106.336C113.493 106.202 113.44 106.039 113.366 105.871C113.306 105.736 113.163 105.436 112.883 105.156L111.468 106.57ZM111.608 106.885L109.819 107.779C109.834 107.808 109.87 107.889 109.921 108.042L111.818 107.41L113.716 106.778C113.627 106.511 113.523 106.242 113.397 105.991L111.608 106.885ZM111.818 107.41L109.946 108.112C109.944 108.108 109.953 108.131 109.968 108.194C109.982 108.255 109.999 108.34 110.016 108.452C110.05 108.68 110.08 108.983 110.101 109.373L112.098 109.265L114.095 109.157C114.048 108.271 113.946 107.388 113.691 106.708L111.818 107.41ZM112.098 109.265L111.788 107.289C110.592 107.477 109.842 107.588 109.505 107.63L109.753 109.615L110.001 111.6C110.411 111.548 111.225 111.426 112.408 111.241L112.098 109.265ZM127.189 106.57L125.4 107.464L125.545 107.755L125.775 107.984L127.189 106.57ZM127.329 106.885L125.406 107.434L125.457 107.613L125.54 107.779L127.329 106.885ZM127.539 107.41L125.641 108.042L125.653 108.078L125.666 108.112L127.539 107.41ZM127.819 109.265L128.129 111.241L129.913 110.961L129.816 109.157L127.819 109.265ZM125.474 109.615L125.226 107.63L123.491 107.847L123.474 109.596L125.474 109.615ZM125.299 127.64L123.299 127.621L123.282 129.394L125.04 129.623L125.299 127.64ZM127.714 127.955H129.714V126.199L127.972 125.972L127.714 127.955ZM126.909 131V133H128.145L128.698 131.894L126.909 131ZM118.404 131L116.43 131.323L116.704 133H118.404V131ZM118.089 129.075L117.329 127.225L115.858 127.829L116.115 129.398L118.089 129.075ZM121.029 128.06L121.448 130.016L123.056 129.671L123.029 128.026L121.029 128.06ZM120.924 122.25L118.924 122.275L118.924 122.287L120.924 122.25ZM120.714 109.545L122.713 109.496L122.678 108.065L121.312 107.636L120.714 109.545ZM117.809 108.635L115.826 108.375L115.607 110.041L117.211 110.544L117.809 108.635ZM118.089 106.5V104.5H116.334L116.106 106.24L118.089 106.5ZM127.189 106.5V104.5C126.875 104.5 126.272 104.58 125.761 105.09C125.251 105.6 125.171 106.203 125.171 106.517C125.171 107.039 125.38 107.425 125.4 107.464L127.189 106.57L128.978 105.676C128.998 105.717 129.037 105.798 129.073 105.907C129.103 105.998 129.171 106.221 129.171 106.517C129.171 106.82 129.094 107.414 128.59 107.919C128.085 108.423 127.491 108.5 127.189 108.5V106.5ZM127.189 106.57L125.775 107.984C125.645 107.855 125.564 107.735 125.52 107.664C125.474 107.589 125.446 107.529 125.431 107.496C125.403 107.433 125.397 107.404 125.406 107.434L127.329 106.885L129.252 106.336C129.214 106.202 129.161 106.039 129.086 105.871C129.026 105.736 128.883 105.436 128.603 105.156L127.189 106.57ZM127.329 106.885L125.54 107.779C125.554 107.808 125.59 107.889 125.641 108.042L127.539 107.41L129.436 106.778C129.347 106.511 129.243 106.242 129.118 105.991L127.329 106.885ZM127.539 107.41L125.666 108.112C125.664 108.108 125.673 108.131 125.688 108.194C125.703 108.255 125.719 108.34 125.736 108.452C125.771 108.68 125.801 108.983 125.822 109.373L127.819 109.265L129.816 109.157C129.768 108.271 129.667 107.388 129.411 106.708L127.539 107.41ZM127.819 109.265L127.509 107.289C126.312 107.477 125.562 107.588 125.226 107.63L125.474 109.615L125.722 111.6C126.132 111.548 126.945 111.426 128.129 111.241L127.819 109.265ZM125.474 109.615L123.474 109.596L123.299 127.621L125.299 127.64L127.299 127.659L127.474 109.634L125.474 109.615ZM125.299 127.64L125.04 129.623L127.455 129.938L127.714 127.955L127.972 125.972L125.557 125.657L125.299 127.64ZM127.714 127.955H125.714C125.714 128.532 125.552 129.241 125.12 130.106L126.909 131L128.698 131.894C129.339 130.612 129.714 129.291 129.714 127.955H127.714ZM126.909 131V129H118.404V131V133H126.909V131ZM118.404 131L120.378 130.677L120.063 128.752L118.089 129.075L116.115 129.398L116.43 131.323L118.404 131ZM118.089 129.075L118.849 130.925C120.139 130.395 120.98 130.116 121.448 130.016L121.029 128.06L120.61 126.104C119.771 126.284 118.652 126.681 117.329 127.225L118.089 129.075ZM121.029 128.06L123.029 128.026C123.005 126.648 122.97 124.71 122.923 122.213L120.924 122.25L118.924 122.287C118.971 124.784 119.006 126.719 119.029 128.094L121.029 128.06ZM120.924 122.25L122.924 122.225C122.854 116.623 122.783 112.378 122.713 109.496L120.714 109.545L118.714 109.594C118.784 112.452 118.854 116.677 118.924 122.275L120.924 122.25ZM120.714 109.545L121.312 107.636L118.407 106.726L117.809 108.635L117.211 110.544L120.116 111.454L120.714 109.545ZM117.809 108.635L119.792 108.895L120.072 106.76L118.089 106.5L116.106 106.24L115.826 108.375L117.809 108.635ZM118.089 106.5V108.5H127.189V106.5V104.5H118.089V106.5ZM133.94 112.87L131.991 113.322L132.293 114.623L133.611 114.843L133.94 112.87ZM133.485 106.5V104.5H131.658L131.493 106.319L133.485 106.5ZM153.82 106.5L155.813 106.334L155.66 104.5H153.82V106.5ZM153.4 112.87L153.932 114.798L155.099 114.476L155.355 113.293L153.4 112.87ZM150.075 113.15L148.125 113.594L148.479 115.15H150.075V113.15ZM149.27 109.615L151.22 109.171L150.865 107.615H149.27V109.615ZM146.295 109.615V107.615H144.347L144.295 109.562L146.295 109.615ZM145.98 127.64L143.98 127.606L143.95 129.402L145.732 129.625L145.98 127.64ZM148.5 127.955H150.5V126.189L148.748 125.97L148.5 127.955ZM147.695 131V133H148.866L149.439 131.979L147.695 131ZM139.19 131L137.216 131.323L137.49 133H139.19V131ZM138.875 129.075L138.169 127.203L136.636 127.781L136.901 129.398L138.875 129.075ZM141.92 128.06L142.248 130.033L143.92 129.754V128.06H141.92ZM141.5 109.65L143.499 109.604L143.454 107.65H141.5V109.65ZM138.035 109.65V107.65H136.434L136.083 109.212L138.035 109.65ZM137.265 113.08V115.08H138.865L139.216 113.518L137.265 113.08ZM133.94 112.87L135.888 112.418C135.527 110.862 135.38 109.763 135.38 109.055H133.38H131.38C131.38 110.214 131.606 111.658 131.991 113.322L133.94 112.87ZM133.38 109.055H135.38C135.38 108.17 135.413 107.38 135.476 106.681L133.485 106.5L131.493 106.319C131.416 107.16 131.38 108.073 131.38 109.055H133.38ZM133.485 106.5V108.5H153.82V106.5V104.5H133.485V106.5ZM153.82 106.5L151.827 106.666C151.921 107.796 151.96 108.474 151.96 108.775H153.96H155.96C155.96 108.283 155.905 107.444 155.813 106.334L153.82 106.5ZM153.96 108.775H151.96C151.96 109.568 151.807 110.772 151.445 112.447L153.4 112.87L155.355 113.293C155.739 111.515 155.96 109.988 155.96 108.775H153.96ZM153.4 112.87L152.868 110.942C152.471 111.051 151.596 111.15 150.075 111.15V113.15V115.15C151.633 115.15 152.975 115.062 153.932 114.798L153.4 112.87ZM150.075 113.15L152.025 112.706L151.22 109.171L149.27 109.615L147.32 110.059L148.125 113.594L150.075 113.15ZM149.27 109.615V107.615H146.295V109.615V111.615H149.27V109.615ZM146.295 109.615L144.295 109.562C144.272 110.462 144.166 116.486 143.98 127.606L145.98 127.64L147.979 127.674C148.166 116.534 148.271 110.542 148.294 109.668L146.295 109.615ZM145.98 127.64L145.732 129.625L148.252 129.94L148.5 127.955L148.748 125.97L146.228 125.655L145.98 127.64ZM148.5 127.955H146.5C146.5 128.678 146.323 129.357 145.95 130.021L147.695 131L149.439 131.979C150.139 130.73 150.5 129.379 150.5 127.955H148.5ZM147.695 131V129H139.19V131V133H147.695V131ZM139.19 131L141.163 130.677L140.848 128.752L138.875 129.075L136.901 129.398L137.216 131.323L139.19 131ZM138.875 129.075L139.58 130.947C140.373 130.648 141.003 130.421 141.476 130.264C141.712 130.185 141.899 130.127 142.04 130.086C142.193 130.043 142.252 130.032 142.248 130.033L141.92 128.06L141.591 126.087C140.934 126.197 139.709 126.623 138.169 127.203L138.875 129.075ZM141.92 128.06H143.92C143.92 127.936 143.778 121.754 143.499 109.604L141.5 109.65L139.5 109.696C139.64 115.786 139.745 120.365 139.815 123.433C139.85 124.967 139.876 126.123 139.894 126.902C139.912 127.707 139.92 128.067 139.92 128.06H141.92ZM141.5 109.65V107.65H138.035V109.65V111.65H141.5V109.65ZM138.035 109.65L136.083 109.212L135.313 112.642L137.265 113.08L139.216 113.518L139.986 110.088L138.035 109.65ZM137.265 113.08V111.08C135.94 111.08 134.954 111.012 134.268 110.897L133.94 112.87L133.611 114.843C134.605 115.008 135.836 115.08 137.265 115.08V113.08ZM172.198 121.83L170.422 120.911L170.201 121.338L170.198 121.818L172.198 121.83ZM172.163 127.64L170.163 127.628L170.152 129.395L171.904 129.623L172.163 127.64ZM174.578 127.955H176.578V126.199L174.837 125.972L174.578 127.955ZM173.773 131V133H175.009L175.562 131.894L173.773 131ZM165.268 131L163.294 131.323L163.569 133H165.268V131ZM164.953 129.075L164.224 127.213L162.718 127.802L162.979 129.398L164.953 129.075ZM167.893 128.06L168.157 130.042L169.893 129.811V128.06H167.893ZM167.823 121.865L169.823 121.831L169.814 121.345L169.584 120.917L167.823 121.865ZM161.208 109.58L162.969 108.632L162.58 107.909L161.795 107.668L161.208 109.58ZM158.128 108.635L156.145 108.375L155.925 110.051L157.541 110.547L158.128 108.635ZM158.408 106.5V104.5H156.653L156.425 106.24L158.408 106.5ZM167.508 106.5L169.264 105.542L168.695 104.5H167.508V106.5ZM168.138 109.265L168.481 111.235L170.138 110.947V109.265H168.138ZM166.073 109.58L165.798 107.599L163.167 107.964L164.245 110.392L166.073 109.58ZM169.818 118.015L167.99 118.827L168.518 120.015H169.818V118.015ZM170.133 118.015V120.015H171.402L171.942 118.867L170.133 118.015ZM174.123 109.545L175.932 110.397L177.015 108.099L174.526 107.586L174.123 109.545ZM171.218 108.635L169.231 108.407L169.055 109.941L170.495 110.5L171.218 108.635ZM171.463 106.5V104.5H169.679L169.476 106.272L171.463 106.5ZM180.598 106.5L182.252 105.375L181.657 104.5H180.598V106.5ZM181.228 109.265L181.63 111.224L183.258 110.89L183.228 109.228L181.228 109.265ZM178.498 109.65L178.345 107.656L177.233 107.741L176.722 108.731L178.498 109.65ZM172.198 121.83L170.198 121.818L170.163 127.628L172.163 127.64L174.163 127.652L174.198 121.842L172.198 121.83ZM172.163 127.64L171.904 129.623L174.319 129.938L174.578 127.955L174.837 125.972L172.422 125.657L172.163 127.64ZM174.578 127.955H172.578C172.578 128.532 172.416 129.241 171.984 130.106L173.773 131L175.562 131.894C176.203 130.612 176.578 129.291 176.578 127.955H174.578ZM173.773 131V129H165.268V131V133H173.773V131ZM165.268 131L167.242 130.677L166.927 128.752L164.953 129.075L162.979 129.398L163.294 131.323L165.268 131ZM164.953 129.075L165.682 130.937C166.476 130.627 167.095 130.396 167.548 130.239C168.068 130.06 168.213 130.035 168.157 130.042L167.893 128.06L167.629 126.078C167.223 126.132 166.703 126.299 166.243 126.458C165.716 126.64 165.04 126.893 164.224 127.213L164.953 129.075ZM167.893 128.06H169.893C169.893 126.666 169.869 124.587 169.823 121.831L167.823 121.865L165.823 121.899C165.87 124.65 165.893 126.701 165.893 128.06H167.893ZM167.823 121.865L169.584 120.917L162.969 108.632L161.208 109.58L159.447 110.528L166.062 122.813L167.823 121.865ZM161.208 109.58L161.795 107.668L158.715 106.723L158.128 108.635L157.541 110.547L160.621 111.492L161.208 109.58ZM158.128 108.635L160.111 108.895L160.391 106.76L158.408 106.5L156.425 106.24L156.145 108.375L158.128 108.635ZM158.408 106.5V108.5H167.508V106.5V104.5H158.408V106.5ZM167.508 106.5L165.752 107.458C165.98 107.875 166.138 108.452 166.138 109.265H168.138H170.138C170.138 107.931 169.876 106.665 169.264 105.542L167.508 106.5ZM168.138 109.265L167.795 107.295C167.29 107.382 166.626 107.484 165.798 107.599L166.073 109.58L166.348 111.561C167.2 111.443 167.913 111.334 168.481 111.235L168.138 109.265ZM166.073 109.58L164.245 110.392L167.99 118.827L169.818 118.015L171.646 117.203L167.901 108.768L166.073 109.58ZM169.818 118.015V120.015H170.133V118.015V116.015H169.818V118.015ZM170.133 118.015L171.942 118.867L175.932 110.397L174.123 109.545L172.314 108.693L168.324 117.163L170.133 118.015ZM174.123 109.545L174.526 107.586C173.882 107.453 173.028 107.192 171.941 106.77L171.218 108.635L170.495 110.5C171.695 110.965 172.777 111.31 173.72 111.504L174.123 109.545ZM171.218 108.635L173.205 108.863L173.45 106.728L171.463 106.5L169.476 106.272L169.231 108.407L171.218 108.635ZM171.463 106.5V108.5H180.598V106.5V104.5H171.463V106.5ZM180.598 106.5L178.944 107.625C179.01 107.721 179.207 108.165 179.228 109.302L181.228 109.265L183.228 109.228C183.202 107.845 182.979 106.445 182.252 105.375L180.598 106.5ZM181.228 109.265L180.826 107.306C179.997 107.476 179.17 107.592 178.345 107.656L178.498 109.65L178.651 111.644C179.646 111.568 180.639 111.427 181.63 111.224L181.228 109.265ZM178.498 109.65L176.722 108.731L170.422 120.911L172.198 121.83L173.974 122.749L180.274 110.569L178.498 109.65Z" fill="#DC4546" mask="url(#path-11-outside-1_2431_610)"/>
<mask id="path-13-outside-2_2431_610" maskUnits="userSpaceOnUse" x="83.3022" y="136" width="48" height="19" fill="black">
<rect fill="white" x="83.3022" y="136" width="48" height="19"/>
<path d="M88.7946 143.18L88.0746 143.2C87.8346 143.2 87.4479 143.153 86.9146 143.06C86.6613 142.367 86.5279 141.493 86.5146 140.44C86.8746 140.08 87.3879 139.747 88.0546 139.44C88.7346 139.12 89.3746 138.96 89.9746 138.96C91.2013 138.96 92.1879 139.273 92.9346 139.9C93.6946 140.527 94.0746 141.253 94.0746 142.08C94.0746 142.907 93.8946 143.633 93.5346 144.26C93.1746 144.887 92.5346 145.6 91.6146 146.4L89.5146 148.22H91.6946C91.8413 147.167 91.9346 146.573 91.9746 146.44C92.1346 146.413 92.3813 146.4 92.7146 146.4C93.0479 146.4 93.3946 146.473 93.7546 146.62C93.9413 147.553 94.0346 148.447 94.0346 149.3L94.0146 150H86.7146C86.4879 149.52 86.3746 149.007 86.3746 148.46C89.2813 145.66 90.8813 144 91.1746 143.48C91.3479 143.173 91.4346 142.727 91.4346 142.14C91.4346 141.82 91.3013 141.507 91.0346 141.2C90.7679 140.893 90.3613 140.74 89.8146 140.74C89.5613 140.74 89.3746 140.747 89.2546 140.76C89.1879 141.053 89.1013 141.5 88.9946 142.1C88.8879 142.687 88.8213 143.047 88.7946 143.18ZM102.077 138.96C103.73 138.96 104.937 139.44 105.697 140.4C106.457 141.347 106.837 142.7 106.837 144.46C106.837 146.207 106.457 147.607 105.697 148.66C104.937 149.713 103.724 150.24 102.057 150.24C100.39 150.24 99.1971 149.773 98.4771 148.84C97.7571 147.893 97.3971 146.467 97.3971 144.56C97.3971 140.827 98.9571 138.96 102.077 138.96ZM101.057 148.2C101.337 148.347 101.677 148.42 102.077 148.42C102.477 148.42 102.81 148.347 103.077 148.2C103.357 148.053 103.564 147.873 103.697 147.66C103.844 147.447 103.957 147.147 104.037 146.76C104.144 146.253 104.197 145.513 104.197 144.54C104.197 142.033 103.49 140.78 102.077 140.78C101.69 140.78 101.357 140.86 101.077 141.02C100.797 141.18 100.584 141.367 100.437 141.58C100.29 141.793 100.177 142.08 100.097 142.44C99.9904 142.92 99.9371 143.493 99.9371 144.16C99.9371 144.813 99.9438 145.307 99.9571 145.64C99.9838 145.96 100.03 146.32 100.097 146.72C100.177 147.107 100.29 147.413 100.437 147.64C100.584 147.853 100.79 148.04 101.057 148.2ZM112.404 143.18L111.684 143.2C111.444 143.2 111.057 143.153 110.524 143.06C110.271 142.367 110.137 141.493 110.124 140.44C110.484 140.08 110.997 139.747 111.664 139.44C112.344 139.12 112.984 138.96 113.584 138.96C114.811 138.96 115.797 139.273 116.544 139.9C117.304 140.527 117.684 141.253 117.684 142.08C117.684 142.907 117.504 143.633 117.144 144.26C116.784 144.887 116.144 145.6 115.224 146.4L113.124 148.22H115.304C115.451 147.167 115.544 146.573 115.584 146.44C115.744 146.413 115.991 146.4 116.324 146.4C116.657 146.4 117.004 146.473 117.364 146.62C117.551 147.553 117.644 148.447 117.644 149.3L117.624 150H110.324C110.097 149.52 109.984 149.007 109.984 148.46C112.891 145.66 114.491 144 114.784 143.48C114.957 143.173 115.044 142.727 115.044 142.14C115.044 141.82 114.911 141.507 114.644 141.2C114.377 140.893 113.971 140.74 113.424 140.74C113.171 140.74 112.984 140.747 112.864 140.76C112.797 141.053 112.711 141.5 112.604 142.1C112.497 142.687 112.431 143.047 112.404 143.18ZM126.506 148.5C126.506 148.007 126.326 147.533 125.966 147.08C125.606 146.613 125.066 146.38 124.346 146.38C123.64 146.38 123.06 146.44 122.606 146.56C122.446 146.467 122.233 146.293 121.966 146.04C121.7 145.773 121.506 145.56 121.386 145.4L121.166 139.2H129.046C129.14 139.56 129.186 140.1 129.186 140.82C129.186 141.527 129.04 142.32 128.746 143.2C128.36 143.293 127.986 143.34 127.626 143.34C127.28 143.34 127.026 143.333 126.866 143.32L126.446 141.04H123.666L123.426 144.62C123.693 144.5 124.006 144.44 124.366 144.44C125.74 144.44 126.88 144.793 127.786 145.5C128.693 146.207 129.146 147.2 129.146 148.48C129.146 149.76 128.62 150.8 127.566 151.6C126.526 152.413 125.24 152.82 123.706 152.82C123.333 152.82 122.833 152.76 122.206 152.64C121.593 152.533 121.1 152.4 120.726 152.24C120.726 152 120.773 151.7 120.866 151.34C120.96 150.98 121.06 150.747 121.166 150.64C121.846 150.88 122.686 151 123.686 151C124.273 151 124.793 150.9 125.246 150.7C126.086 150.313 126.506 149.58 126.506 148.5Z"/>
</mask>
<path d="M88.7946 143.18L88.0746 143.2C87.8346 143.2 87.4479 143.153 86.9146 143.06C86.6613 142.367 86.5279 141.493 86.5146 140.44C86.8746 140.08 87.3879 139.747 88.0546 139.44C88.7346 139.12 89.3746 138.96 89.9746 138.96C91.2013 138.96 92.1879 139.273 92.9346 139.9C93.6946 140.527 94.0746 141.253 94.0746 142.08C94.0746 142.907 93.8946 143.633 93.5346 144.26C93.1746 144.887 92.5346 145.6 91.6146 146.4L89.5146 148.22H91.6946C91.8413 147.167 91.9346 146.573 91.9746 146.44C92.1346 146.413 92.3813 146.4 92.7146 146.4C93.0479 146.4 93.3946 146.473 93.7546 146.62C93.9413 147.553 94.0346 148.447 94.0346 149.3L94.0146 150H86.7146C86.4879 149.52 86.3746 149.007 86.3746 148.46C89.2813 145.66 90.8813 144 91.1746 143.48C91.3479 143.173 91.4346 142.727 91.4346 142.14C91.4346 141.82 91.3013 141.507 91.0346 141.2C90.7679 140.893 90.3613 140.74 89.8146 140.74C89.5613 140.74 89.3746 140.747 89.2546 140.76C89.1879 141.053 89.1013 141.5 88.9946 142.1C88.8879 142.687 88.8213 143.047 88.7946 143.18ZM102.077 138.96C103.73 138.96 104.937 139.44 105.697 140.4C106.457 141.347 106.837 142.7 106.837 144.46C106.837 146.207 106.457 147.607 105.697 148.66C104.937 149.713 103.724 150.24 102.057 150.24C100.39 150.24 99.1971 149.773 98.4771 148.84C97.7571 147.893 97.3971 146.467 97.3971 144.56C97.3971 140.827 98.9571 138.96 102.077 138.96ZM101.057 148.2C101.337 148.347 101.677 148.42 102.077 148.42C102.477 148.42 102.81 148.347 103.077 148.2C103.357 148.053 103.564 147.873 103.697 147.66C103.844 147.447 103.957 147.147 104.037 146.76C104.144 146.253 104.197 145.513 104.197 144.54C104.197 142.033 103.49 140.78 102.077 140.78C101.69 140.78 101.357 140.86 101.077 141.02C100.797 141.18 100.584 141.367 100.437 141.58C100.29 141.793 100.177 142.08 100.097 142.44C99.9904 142.92 99.9371 143.493 99.9371 144.16C99.9371 144.813 99.9438 145.307 99.9571 145.64C99.9838 145.96 100.03 146.32 100.097 146.72C100.177 147.107 100.29 147.413 100.437 147.64C100.584 147.853 100.79 148.04 101.057 148.2ZM112.404 143.18L111.684 143.2C111.444 143.2 111.057 143.153 110.524 143.06C110.271 142.367 110.137 141.493 110.124 140.44C110.484 140.08 110.997 139.747 111.664 139.44C112.344 139.12 112.984 138.96 113.584 138.96C114.811 138.96 115.797 139.273 116.544 139.9C117.304 140.527 117.684 141.253 117.684 142.08C117.684 142.907 117.504 143.633 117.144 144.26C116.784 144.887 116.144 145.6 115.224 146.4L113.124 148.22H115.304C115.451 147.167 115.544 146.573 115.584 146.44C115.744 146.413 115.991 146.4 116.324 146.4C116.657 146.4 117.004 146.473 117.364 146.62C117.551 147.553 117.644 148.447 117.644 149.3L117.624 150H110.324C110.097 149.52 109.984 149.007 109.984 148.46C112.891 145.66 114.491 144 114.784 143.48C114.957 143.173 115.044 142.727 115.044 142.14C115.044 141.82 114.911 141.507 114.644 141.2C114.377 140.893 113.971 140.74 113.424 140.74C113.171 140.74 112.984 140.747 112.864 140.76C112.797 141.053 112.711 141.5 112.604 142.1C112.497 142.687 112.431 143.047 112.404 143.18ZM126.506 148.5C126.506 148.007 126.326 147.533 125.966 147.08C125.606 146.613 125.066 146.38 124.346 146.38C123.64 146.38 123.06 146.44 122.606 146.56C122.446 146.467 122.233 146.293 121.966 146.04C121.7 145.773 121.506 145.56 121.386 145.4L121.166 139.2H129.046C129.14 139.56 129.186 140.1 129.186 140.82C129.186 141.527 129.04 142.32 128.746 143.2C128.36 143.293 127.986 143.34 127.626 143.34C127.28 143.34 127.026 143.333 126.866 143.32L126.446 141.04H123.666L123.426 144.62C123.693 144.5 124.006 144.44 124.366 144.44C125.74 144.44 126.88 144.793 127.786 145.5C128.693 146.207 129.146 147.2 129.146 148.48C129.146 149.76 128.62 150.8 127.566 151.6C126.526 152.413 125.24 152.82 123.706 152.82C123.333 152.82 122.833 152.76 122.206 152.64C121.593 152.533 121.1 152.4 120.726 152.24C120.726 152 120.773 151.7 120.866 151.34C120.96 150.98 121.06 150.747 121.166 150.64C121.846 150.88 122.686 151 123.686 151C124.273 151 124.793 150.9 125.246 150.7C126.086 150.313 126.506 149.58 126.506 148.5Z" fill="#FFD895" fillOpacity="0.9"/>
<path d="M88.7946 143.18L88.8501 145.179L90.4432 145.135L90.7558 143.572L88.7946 143.18ZM88.0746 143.2V145.2H88.1024L88.1301 145.199L88.0746 143.2ZM86.9146 143.06L85.0361 143.746L85.4324 144.831L86.5698 145.03L86.9146 143.06ZM86.5146 140.44L85.1004 139.026L84.5041 139.622L84.5148 140.465L86.5146 140.44ZM88.0546 139.44L88.8904 141.257L88.8983 141.253L88.9062 141.25L88.0546 139.44ZM92.9346 139.9L91.6488 141.432L91.6555 141.438L91.6622 141.443L92.9346 139.9ZM93.5346 144.26L95.2688 145.256L95.2688 145.256L93.5346 144.26ZM91.6146 146.4L92.9245 147.911L92.9269 147.909L91.6146 146.4ZM89.5146 148.22L88.2047 146.709L84.1531 150.22H89.5146V148.22ZM91.6946 148.22V150.22H93.4354L93.6755 148.496L91.6946 148.22ZM91.9746 146.44L91.6458 144.467L90.4169 144.672L90.0589 145.865L91.9746 146.44ZM93.7546 146.62L95.7158 146.228L95.5049 145.173L94.5092 144.768L93.7546 146.62ZM94.0346 149.3L96.0338 149.357L96.0346 149.329V149.3H94.0346ZM94.0146 150V152H95.9583L96.0138 150.057L94.0146 150ZM86.7146 150L84.9061 150.854L85.4473 152H86.7146V150ZM86.3746 148.46L84.9871 147.02L84.3746 147.61V148.46H86.3746ZM91.1746 143.48L89.4335 142.496L89.4326 142.497L91.1746 143.48ZM89.2546 140.76L89.0337 138.772L87.6196 138.929L87.3043 140.317L89.2546 140.76ZM88.9946 142.1L90.9623 142.458L90.9637 142.45L88.9946 142.1ZM88.7946 143.18L88.7391 141.181L88.0191 141.201L88.0746 143.2L88.1301 145.199L88.8501 145.179L88.7946 143.18ZM88.0746 143.2V141.2C88.0765 141.2 88.0587 141.2 88.0156 141.197C87.9739 141.194 87.9174 141.188 87.8442 141.179C87.6966 141.162 87.5035 141.133 87.2594 141.09L86.9146 143.06L86.5698 145.03C87.1117 145.125 87.6467 145.2 88.0746 145.2V143.2ZM86.9146 143.06L88.7931 142.374C88.6426 141.962 88.526 141.331 88.5144 140.415L86.5146 140.44L84.5148 140.465C84.5298 141.656 84.6799 142.772 85.0361 143.746L86.9146 143.06ZM86.5146 140.44L87.9288 141.854C88.065 141.718 88.3521 141.505 88.8904 141.257L88.0546 139.44L87.2188 137.623C86.4238 137.989 85.6842 138.442 85.1004 139.026L86.5146 140.44ZM88.0546 139.44L88.9062 141.25C89.3852 141.024 89.7336 140.96 89.9746 140.96V138.96V136.96C89.0155 136.96 88.084 137.216 87.203 137.63L88.0546 139.44ZM89.9746 138.96V140.96C90.8558 140.96 91.3477 141.179 91.6488 141.432L92.9346 139.9L94.2203 138.368C93.0282 137.367 91.5467 136.96 89.9746 136.96V138.96ZM92.9346 139.9L91.6622 141.443C92.0592 141.77 92.0746 141.967 92.0746 142.08H94.0746H96.0746C96.0746 140.54 95.3299 139.283 94.207 138.357L92.9346 139.9ZM94.0746 142.08H92.0746C92.0746 142.608 91.9625 142.982 91.8004 143.264L93.5346 144.26L95.2688 145.256C95.8267 144.285 96.0746 143.205 96.0746 142.08H94.0746ZM93.5346 144.26L91.8004 143.264C91.602 143.609 91.153 144.151 90.3022 144.891L91.6146 146.4L92.9269 147.909C93.9162 147.049 94.7472 146.164 95.2688 145.256L93.5346 144.26ZM91.6146 146.4L90.3047 144.889L88.2047 146.709L89.5146 148.22L90.8245 149.731L92.9245 147.911L91.6146 146.4ZM89.5146 148.22V150.22H91.6946V148.22V146.22H89.5146V148.22ZM91.6946 148.22L93.6755 148.496C93.7482 147.973 93.8063 147.575 93.8503 147.296C93.8724 147.155 93.8894 147.054 93.9017 146.987C93.9199 146.888 93.9161 146.928 93.8902 147.015L91.9746 146.44L90.0589 145.865C89.9906 146.093 89.9366 146.435 89.8989 146.674C89.8495 146.988 89.7876 147.413 89.7137 147.944L91.6946 148.22ZM91.9746 146.44L92.3034 148.413C92.2831 148.416 92.3043 148.412 92.3875 148.407C92.465 148.403 92.5724 148.4 92.7146 148.4V146.4V144.4C92.3607 144.4 91.9768 144.412 91.6458 144.467L91.9746 146.44ZM92.7146 146.4V148.4C92.7499 148.4 92.8403 148.407 93 148.472L93.7546 146.62L94.5092 144.768C93.9488 144.54 93.3459 144.4 92.7146 144.4V146.4ZM93.7546 146.62L91.7934 147.012C91.9572 147.831 92.0346 148.592 92.0346 149.3H94.0346H96.0346C96.0346 148.301 95.9253 147.276 95.7158 146.228L93.7546 146.62ZM94.0346 149.3L92.0354 149.243L92.0154 149.943L94.0146 150L96.0138 150.057L96.0338 149.357L94.0346 149.3ZM94.0146 150V148H86.7146V150V152H94.0146V150ZM86.7146 150L88.5231 149.146C88.4263 148.941 88.3746 148.72 88.3746 148.46H86.3746H84.3746C84.3746 149.293 84.5495 150.099 84.9061 150.854L86.7146 150ZM86.3746 148.46L87.7621 149.9C89.2222 148.494 90.3693 147.359 91.1946 146.503C91.6063 146.076 91.951 145.704 92.2196 145.395C92.4555 145.124 92.7334 144.787 92.9165 144.463L91.1746 143.48L89.4326 142.497C89.4691 142.433 89.437 142.499 89.1996 142.772C88.9948 143.008 88.7029 143.324 88.3146 143.727C87.5398 144.531 86.4336 145.626 84.9871 147.02L86.3746 148.46ZM91.1746 143.48L92.9157 144.464C93.3366 143.72 93.4346 142.868 93.4346 142.14H91.4346H89.4346C89.4346 142.34 89.4194 142.466 89.4062 142.534C89.3926 142.604 89.3882 142.576 89.4335 142.496L91.1746 143.48ZM91.4346 142.14H93.4346C93.4346 141.219 93.039 140.457 92.5438 139.888L91.0346 141.2L89.5254 142.512C89.5471 142.537 89.5237 142.517 89.4943 142.448C89.4624 142.373 89.4346 142.266 89.4346 142.14H91.4346ZM91.0346 141.2L92.5438 139.888C91.7781 139.007 90.7296 138.74 89.8146 138.74V140.74V142.74C89.9065 142.74 89.8959 142.754 89.824 142.726C89.7394 142.695 89.6245 142.626 89.5254 142.512L91.0346 141.2ZM89.8146 140.74V138.74C89.5492 138.74 89.2699 138.746 89.0337 138.772L89.2546 140.76L89.4755 142.748C89.4667 142.749 89.4888 142.746 89.556 142.744C89.6189 142.741 89.704 142.74 89.8146 142.74V140.74ZM89.2546 140.76L87.3043 140.317C87.2267 140.658 87.1333 141.143 87.0255 141.75L88.9946 142.1L90.9637 142.45C91.0692 141.857 91.1492 141.448 91.2049 141.203L89.2546 140.76ZM88.9946 142.1L87.0268 141.742C86.9188 142.336 86.8558 142.676 86.8334 142.788L88.7946 143.18L90.7558 143.572C90.7867 143.418 90.857 143.037 90.9623 142.458L88.9946 142.1ZM105.697 140.4L104.129 141.641L104.137 141.652L105.697 140.4ZM105.697 148.66L107.319 149.83L107.319 149.83L105.697 148.66ZM98.4771 148.84L96.8852 150.051L96.8935 150.062L98.4771 148.84ZM101.057 148.2L100.028 149.915L100.078 149.945L100.129 149.972L101.057 148.2ZM103.077 148.2L102.149 146.428L102.131 146.438L102.113 146.448L103.077 148.2ZM103.697 147.66L102.049 146.527L102.024 146.563L102.001 146.6L103.697 147.66ZM104.037 146.76L102.08 146.348L102.079 146.355L104.037 146.76ZM101.077 141.02L100.085 139.284L100.085 139.284L101.077 141.02ZM100.437 141.58L98.789 140.447L98.789 140.447L100.437 141.58ZM100.097 142.44L102.049 142.874L102.049 142.874L100.097 142.44ZM99.9571 145.64L97.9587 145.72L97.9604 145.763L97.964 145.806L99.9571 145.64ZM100.097 146.72L98.1243 147.049L98.1307 147.087L98.1386 147.125L100.097 146.72ZM100.437 147.64L98.758 148.727L98.7732 148.75L98.789 148.773L100.437 147.64ZM102.077 138.96V140.96C103.348 140.96 103.871 141.315 104.129 141.641L105.697 140.4L107.265 139.159C106.003 137.565 104.113 136.96 102.077 136.96V138.96ZM105.697 140.4L104.137 141.652C104.509 142.115 104.837 142.956 104.837 144.46H106.837H108.837C108.837 142.444 108.405 140.579 107.257 139.148L105.697 140.4ZM106.837 144.46H104.837C104.837 145.929 104.517 146.877 104.075 147.49L105.697 148.66L107.319 149.83C108.397 148.336 108.837 146.484 108.837 144.46H106.837ZM105.697 148.66L104.075 147.49C103.795 147.878 103.283 148.24 102.057 148.24V150.24V152.24C104.165 152.24 106.079 151.549 107.319 149.83L105.697 148.66ZM102.057 150.24V148.24C100.739 148.24 100.263 147.88 100.061 147.618L98.4771 148.84L96.8935 150.062C98.1316 151.667 100.041 152.24 102.057 152.24V150.24ZM98.4771 148.84L100.069 147.629C99.731 147.185 99.3971 146.274 99.3971 144.56H97.3971H95.3971C95.3971 146.66 95.7831 148.602 96.8852 150.051L98.4771 148.84ZM97.3971 144.56H99.3971C99.3971 142.923 99.7466 142.067 100.102 141.643C100.399 141.286 100.929 140.96 102.077 140.96V138.96V136.96C100.105 136.96 98.2948 137.567 97.0324 139.077C95.8276 140.519 95.3971 142.464 95.3971 144.56H97.3971ZM101.057 148.2L100.129 149.972C100.761 150.303 101.438 150.42 102.077 150.42V148.42V146.42C101.917 146.42 101.913 146.39 101.985 146.428L101.057 148.2ZM102.077 148.42V150.42C102.712 150.42 103.401 150.305 104.041 149.952L103.077 148.2L102.113 146.448C102.166 146.418 102.2 146.411 102.197 146.412C102.193 146.413 102.157 146.42 102.077 146.42V148.42ZM103.077 148.2L104.005 149.972C104.52 149.702 105.029 149.303 105.393 148.72L103.697 147.66L102.001 146.6C102.099 146.444 102.194 146.405 102.149 146.428L103.077 148.2ZM103.697 147.66L105.345 148.793C105.701 148.276 105.887 147.689 105.996 147.165L104.037 146.76L102.079 146.355C102.055 146.468 102.033 146.536 102.021 146.568C102.008 146.602 102.013 146.58 102.049 146.527L103.697 147.66ZM104.037 146.76L105.994 147.172C106.144 146.459 106.197 145.554 106.197 144.54H104.197H102.197C102.197 145.473 102.143 146.047 102.08 146.348L104.037 146.76ZM104.197 144.54H106.197C106.197 143.164 106.015 141.811 105.409 140.738C104.709 139.496 103.522 138.78 102.077 138.78V140.78V142.78C102.126 142.78 102.073 142.788 101.987 142.737C101.902 142.687 101.891 142.643 101.925 142.702C102.026 142.882 102.197 143.409 102.197 144.54H104.197ZM102.077 140.78V138.78C101.412 138.78 100.722 138.919 100.085 139.284L101.077 141.02L102.069 142.756C102.053 142.766 102.038 142.773 102.026 142.777C102.014 142.782 102.006 142.784 102.004 142.785C102 142.786 102.021 142.78 102.077 142.78V140.78ZM101.077 141.02L100.085 139.284C99.6062 139.557 99.1427 139.932 98.789 140.447L100.437 141.58L102.085 142.713C102.056 142.756 102.031 142.779 102.024 142.785C102.018 142.791 102.03 142.779 102.069 142.756L101.077 141.02ZM100.437 141.58L98.789 140.447C98.4493 140.941 98.2586 141.494 98.1447 142.006L100.097 142.44L102.049 142.874C102.071 142.777 102.091 142.719 102.102 142.69C102.113 142.661 102.112 142.675 102.085 142.713L100.437 141.58ZM100.097 142.44L98.1447 142.006C97.9975 142.669 97.9371 143.395 97.9371 144.16H99.9371H101.937C101.937 143.591 101.983 143.171 102.049 142.874L100.097 142.44ZM99.9371 144.16H97.9371C97.9371 144.82 97.9437 145.346 97.9587 145.72L99.9571 145.64L101.955 145.56C101.944 145.268 101.937 144.807 101.937 144.16H99.9371ZM99.9571 145.64L97.964 145.806C97.9962 146.193 98.0509 146.608 98.1243 147.049L100.097 146.72L102.07 146.391C102.01 146.032 101.971 145.727 101.95 145.474L99.9571 145.64ZM100.097 146.72L98.1386 147.125C98.2476 147.652 98.4298 148.219 98.758 148.727L100.437 147.64L102.116 146.553C102.137 146.586 102.134 146.59 102.118 146.547C102.102 146.504 102.079 146.43 102.056 146.315L100.097 146.72ZM100.437 147.64L98.789 148.773C99.1273 149.265 99.5644 149.637 100.028 149.915L101.057 148.2L102.086 146.485C102.051 146.464 102.039 146.453 102.043 146.456C102.044 146.457 102.05 146.462 102.057 146.471C102.065 146.48 102.075 146.492 102.085 146.507L100.437 147.64ZM112.404 143.18L112.46 145.179L114.053 145.135L114.365 143.572L112.404 143.18ZM111.684 143.2V145.2H111.712L111.74 145.199L111.684 143.2ZM110.524 143.06L108.645 143.746L109.042 144.831L110.179 145.03L110.524 143.06ZM110.124 140.44L108.71 139.026L108.113 139.622L108.124 140.465L110.124 140.44ZM111.664 139.44L112.5 141.257L112.508 141.253L112.516 141.25L111.664 139.44ZM116.544 139.9L115.258 141.432L115.265 141.438L115.272 141.443L116.544 139.9ZM117.144 144.26L118.878 145.256L118.878 145.256L117.144 144.26ZM115.224 146.4L116.534 147.911L116.536 147.909L115.224 146.4ZM113.124 148.22L111.814 146.709L107.763 150.22H113.124V148.22ZM115.304 148.22V150.22H117.045L117.285 148.496L115.304 148.22ZM115.584 146.44L115.255 144.467L114.026 144.672L113.668 145.865L115.584 146.44ZM117.364 146.62L119.325 146.228L119.114 145.173L118.119 144.768L117.364 146.62ZM117.644 149.3L119.643 149.357L119.644 149.329V149.3H117.644ZM117.624 150V152H119.568L119.623 150.057L117.624 150ZM110.324 150L108.515 150.854L109.057 152H110.324V150ZM109.984 148.46L108.596 147.02L107.984 147.61V148.46H109.984ZM114.784 143.48L113.043 142.496L113.042 142.497L114.784 143.48ZM112.864 140.76L112.643 138.772L111.229 138.929L110.914 140.317L112.864 140.76ZM112.604 142.1L114.572 142.458L114.573 142.45L112.604 142.1ZM112.404 143.18L112.348 141.181L111.628 141.201L111.684 143.2L111.74 145.199L112.46 145.179L112.404 143.18ZM111.684 143.2V141.2C111.686 141.2 111.668 141.2 111.625 141.197C111.583 141.194 111.527 141.188 111.454 141.179C111.306 141.162 111.113 141.133 110.869 141.09L110.524 143.06L110.179 145.03C110.721 145.125 111.256 145.2 111.684 145.2V143.2ZM110.524 143.06L112.402 142.374C112.252 141.962 112.135 141.331 112.124 140.415L110.124 140.44L108.124 140.465C108.139 141.656 108.289 142.772 108.645 143.746L110.524 143.06ZM110.124 140.44L111.538 141.854C111.674 141.718 111.961 141.505 112.5 141.257L111.664 139.44L110.828 137.623C110.033 137.989 109.294 138.442 108.71 139.026L110.124 140.44ZM111.664 139.44L112.516 141.25C112.995 141.024 113.343 140.96 113.584 140.96V138.96V136.96C112.625 136.96 111.693 137.216 110.812 137.63L111.664 139.44ZM113.584 138.96V140.96C114.465 140.96 114.957 141.179 115.258 141.432L116.544 139.9L117.83 138.368C116.638 137.367 115.156 136.96 113.584 136.96V138.96ZM116.544 139.9L115.272 141.443C115.669 141.77 115.684 141.967 115.684 142.08H117.684H119.684C119.684 140.54 118.939 139.283 117.816 138.357L116.544 139.9ZM117.684 142.08H115.684C115.684 142.608 115.572 142.982 115.41 143.264L117.144 144.26L118.878 145.256C119.436 144.285 119.684 143.205 119.684 142.08H117.684ZM117.144 144.26L115.41 143.264C115.211 143.609 114.762 144.151 113.912 144.891L115.224 146.4L116.536 147.909C117.526 147.049 118.357 146.164 118.878 145.256L117.144 144.26ZM115.224 146.4L113.914 144.889L111.814 146.709L113.124 148.22L114.434 149.731L116.534 147.911L115.224 146.4ZM113.124 148.22V150.22H115.304V148.22V146.22H113.124V148.22ZM115.304 148.22L117.285 148.496C117.358 147.973 117.416 147.575 117.46 147.296C117.482 147.155 117.499 147.054 117.511 146.987C117.529 146.888 117.525 146.928 117.5 147.015L115.584 146.44L113.668 145.865C113.6 146.093 113.546 146.435 113.508 146.674C113.459 146.988 113.397 147.413 113.323 147.944L115.304 148.22ZM115.584 146.44L115.913 148.413C115.892 148.416 115.914 148.412 115.997 148.407C116.074 148.403 116.182 148.4 116.324 148.4V146.4V144.4C115.97 144.4 115.586 144.412 115.255 144.467L115.584 146.44ZM116.324 146.4V148.4C116.359 148.4 116.45 148.407 116.609 148.472L117.364 146.62L118.119 144.768C117.558 144.54 116.955 144.4 116.324 144.4V146.4ZM117.364 146.62L115.403 147.012C115.567 147.831 115.644 148.592 115.644 149.3H117.644H119.644C119.644 148.301 119.535 147.276 119.325 146.228L117.364 146.62ZM117.644 149.3L115.645 149.243L115.625 149.943L117.624 150L119.623 150.057L119.643 149.357L117.644 149.3ZM117.624 150V148H110.324V150V152H117.624V150ZM110.324 150L112.132 149.146C112.036 148.941 111.984 148.72 111.984 148.46H109.984H107.984C107.984 149.293 108.159 150.099 108.515 150.854L110.324 150ZM109.984 148.46L111.372 149.9C112.832 148.494 113.979 147.359 114.804 146.503C115.216 146.076 115.56 145.704 115.829 145.395C116.065 145.124 116.343 144.787 116.526 144.463L114.784 143.48L113.042 142.497C113.078 142.433 113.046 142.499 112.809 142.772C112.604 143.008 112.312 143.324 111.924 143.727C111.149 144.531 110.043 145.626 108.596 147.02L109.984 148.46ZM114.784 143.48L116.525 144.464C116.946 143.72 117.044 142.868 117.044 142.14H115.044H113.044C113.044 142.34 113.029 142.466 113.016 142.534C113.002 142.604 112.998 142.576 113.043 142.496L114.784 143.48ZM115.044 142.14H117.044C117.044 141.219 116.648 140.457 116.153 139.888L114.644 141.2L113.135 142.512C113.156 142.537 113.133 142.517 113.104 142.448C113.072 142.373 113.044 142.266 113.044 142.14H115.044ZM114.644 141.2L116.153 139.888C115.387 139.007 114.339 138.74 113.424 138.74V140.74V142.74C113.516 142.74 113.505 142.754 113.433 142.726C113.349 142.695 113.234 142.626 113.135 142.512L114.644 141.2ZM113.424 140.74V138.74C113.159 138.74 112.879 138.746 112.643 138.772L112.864 140.76L113.085 142.748C113.076 142.749 113.098 142.746 113.165 142.744C113.228 142.741 113.313 142.74 113.424 142.74V140.74ZM112.864 140.76L110.914 140.317C110.836 140.658 110.743 141.143 110.635 141.75L112.604 142.1L114.573 142.45C114.679 141.857 114.759 141.448 114.814 141.203L112.864 140.76ZM112.604 142.1L110.636 141.742C110.528 142.336 110.465 142.676 110.443 142.788L112.404 143.18L114.365 143.572C114.396 143.418 114.466 143.037 114.572 142.458L112.604 142.1ZM125.966 147.08L124.383 148.302L124.391 148.313L124.4 148.324L125.966 147.08ZM122.606 146.56L121.599 148.288L122.316 148.706L123.118 148.493L122.606 146.56ZM121.966 146.04L120.552 147.454L120.57 147.472L120.589 147.49L121.966 146.04ZM121.386 145.4L119.388 145.471L119.41 146.098L119.786 146.6L121.386 145.4ZM121.166 139.2V137.2H119.094L119.168 139.271L121.166 139.2ZM129.046 139.2L130.982 138.698L130.594 137.2H129.046V139.2ZM128.746 143.2L129.216 145.144L130.293 144.884L130.644 143.832L128.746 143.2ZM126.866 143.32L124.9 143.682L125.177 145.186L126.7 145.313L126.866 143.32ZM126.446 141.04L128.413 140.678L128.112 139.04H126.446V141.04ZM123.666 141.04V139.04H121.796L121.671 140.906L123.666 141.04ZM123.426 144.62L121.431 144.486L121.208 147.811L124.247 146.444L123.426 144.62ZM127.786 145.5L126.557 147.077L126.557 147.077L127.786 145.5ZM127.566 151.6L126.357 150.007L126.346 150.016L126.334 150.025L127.566 151.6ZM122.206 152.64L122.583 150.676L122.566 150.672L122.549 150.67L122.206 152.64ZM120.726 152.24H118.726V153.559L119.939 154.078L120.726 152.24ZM120.866 151.34L118.93 150.838L118.93 150.838L120.866 151.34ZM121.166 150.64L121.832 148.754L120.644 148.335L119.752 149.226L121.166 150.64ZM125.246 150.7L126.054 152.53L126.068 152.523L126.083 152.517L125.246 150.7ZM126.506 148.5H128.506C128.506 147.48 128.123 146.579 127.533 145.836L125.966 147.08L124.4 148.324C124.47 148.412 124.495 148.467 124.502 148.486C124.504 148.491 124.505 148.495 124.506 148.497C124.506 148.499 124.506 148.5 124.507 148.5C124.507 148.5 124.506 148.5 124.506 148.499C124.506 148.499 124.506 148.499 124.506 148.5H126.506ZM125.966 147.08L127.55 145.858C126.727 144.791 125.534 144.38 124.346 144.38V146.38V148.38C124.493 148.38 124.528 148.404 124.498 148.391C124.483 148.384 124.46 148.372 124.435 148.352C124.41 148.333 124.392 148.314 124.383 148.302L125.966 147.08ZM124.346 146.38V144.38C123.545 144.38 122.776 144.446 122.095 144.627L122.606 146.56L123.118 148.493C123.343 148.434 123.735 148.38 124.346 148.38V146.38ZM122.606 146.56L123.614 144.832C123.654 144.856 123.649 144.857 123.588 144.808C123.532 144.762 123.451 144.692 123.344 144.59L121.966 146.04L120.589 147.49C120.881 147.767 121.231 148.073 121.599 148.288L122.606 146.56ZM121.966 146.04L123.381 144.626C123.133 144.378 123.02 144.245 122.986 144.2L121.386 145.4L119.786 146.6C119.993 146.875 120.266 147.168 120.552 147.454L121.966 146.04ZM121.386 145.4L123.385 145.329L123.165 139.129L121.166 139.2L119.168 139.271L119.388 145.471L121.386 145.4ZM121.166 139.2V141.2H129.046V139.2V137.2H121.166V139.2ZM129.046 139.2L127.11 139.702C127.138 139.809 127.186 140.143 127.186 140.82H129.186H131.186C131.186 140.057 131.141 139.311 130.982 138.698L129.046 139.2ZM129.186 140.82H127.186C127.186 141.256 127.094 141.831 126.849 142.568L128.746 143.2L130.644 143.832C130.985 142.809 131.186 141.797 131.186 140.82H129.186ZM128.746 143.2L128.277 141.256C128.028 141.316 127.813 141.34 127.626 141.34V143.34V145.34C128.16 145.34 128.691 145.271 129.216 145.144L128.746 143.2ZM127.626 143.34V141.34C127.287 141.34 127.104 141.333 127.033 141.327L126.866 143.32L126.7 145.313C126.949 145.334 127.273 145.34 127.626 145.34V143.34ZM126.866 143.32L128.833 142.958L128.413 140.678L126.446 141.04L124.48 141.402L124.9 143.682L126.866 143.32ZM126.446 141.04V139.04H123.666V141.04V143.04H126.446V141.04ZM123.666 141.04L121.671 140.906L121.431 144.486L123.426 144.62L125.422 144.754L125.662 141.174L123.666 141.04ZM123.426 144.62L124.247 146.444C124.203 146.464 124.226 146.44 124.366 146.44V144.44V142.44C123.787 142.44 123.183 142.536 122.606 142.796L123.426 144.62ZM124.366 144.44V146.44C125.384 146.44 126.066 146.695 126.557 147.077L127.786 145.5L129.016 143.923C127.693 142.892 126.096 142.44 124.366 142.44V144.44ZM127.786 145.5L126.557 147.077C126.918 147.359 127.146 147.737 127.146 148.48H129.146H131.146C131.146 146.663 130.469 145.055 129.016 143.923L127.786 145.5ZM129.146 148.48H127.146C127.146 149.111 126.932 149.571 126.357 150.007L127.566 151.6L128.776 153.193C130.308 152.029 131.146 150.409 131.146 148.48H129.146ZM127.566 151.6L126.334 150.025C125.701 150.52 124.868 150.82 123.706 150.82V152.82V154.82C125.611 154.82 127.352 154.307 128.799 153.175L127.566 151.6ZM123.706 152.82V150.82C123.517 150.82 123.159 150.786 122.583 150.676L122.206 152.64L121.83 154.604C122.507 154.734 123.149 154.82 123.706 154.82V152.82ZM122.206 152.64L122.549 150.67C122.017 150.577 121.691 150.477 121.514 150.402L120.726 152.24L119.939 154.078C120.509 154.323 121.169 154.49 121.864 154.61L122.206 152.64ZM120.726 152.24H122.726C122.726 152.246 122.726 152.216 122.738 152.142C122.749 152.07 122.769 151.971 122.802 151.842L120.866 151.34L118.93 150.838C118.815 151.283 118.726 151.765 118.726 152.24H120.726ZM120.866 151.34L122.802 151.842C122.834 151.719 122.853 151.675 122.85 151.683C122.847 151.689 122.831 151.726 122.797 151.783C122.764 151.836 122.696 151.939 122.581 152.054L121.166 150.64L119.752 149.226C119.437 149.541 119.264 149.894 119.173 150.107C119.07 150.348 118.992 150.601 118.93 150.838L120.866 151.34ZM121.166 150.64L120.501 152.526C121.46 152.864 122.541 153 123.686 153V151V149C122.832 149 122.233 148.896 121.832 148.754L121.166 150.64ZM123.686 151V153C124.501 153 125.304 152.861 126.054 152.53L125.246 150.7L124.439 148.87C124.283 148.939 124.046 149 123.686 149V151ZM125.246 150.7L126.083 152.517C126.843 152.167 127.491 151.616 127.927 150.854C128.352 150.112 128.506 149.294 128.506 148.5H126.506H124.506C124.506 148.786 124.451 148.875 124.456 148.866C124.458 148.862 124.464 148.854 124.469 148.85C124.472 148.847 124.458 148.861 124.41 148.883L125.246 150.7Z" fill="#DC4546" mask="url(#path-13-outside-2_2431_610)"/>
<path d="M101.207 8.0332C104.843 6.19658 109.13 6.17097 112.789 7.96387L196.263 48.875C200.718 51.0584 203.542 55.5867 203.542 60.5479V170.944C203.542 175.741 200.901 180.147 196.671 182.408L113.204 227.035C109.323 229.11 104.655 229.081 100.8 226.957L20.0288 182.45C15.8798 180.164 13.3024 175.802 13.3022 171.064V60.4316L13.3101 59.9727C13.4763 55.2483 16.1999 50.9704 20.4409 48.8281L101.207 8.0332Z" stroke="#FBCD7E" strokeOpacity="0.9" strokeWidth="2"/>
<defs>
<radialGradient id="paint0_radial_2431_610" cx="0" cy="0" r="1" gradientUnits="userSpaceOnUse" gradientTransform="translate(103.007 13.65) rotate(39.4328) scale(10.8238)">
<stop stopColor="#F8F6F2"/>
<stop offset="0.5" stopColor="#EFDEC0"/>
<stop offset="1" stopColor="#E5C68D"/>
</radialGradient>
<radialGradient id="paint1_radial_2431_610" cx="0" cy="0" r="1" gradientUnits="userSpaceOnUse" gradientTransform="translate(189.007 55.65) rotate(39.4328) scale(10.8238)">
<stop stopColor="#F8F6F2"/>
<stop offset="0.5" stopColor="#EFDEC0"/>
<stop offset="1" stopColor="#E5C68D"/>
</radialGradient>
<radialGradient id="paint2_radial_2431_610" cx="0" cy="0" r="1" gradientUnits="userSpaceOnUse" gradientTransform="translate(189.007 167.65) rotate(39.4328) scale(10.8238)">
<stop stopColor="#F8F6F2"/>
<stop offset="0.5" stopColor="#EFDEC0"/>
<stop offset="1" stopColor="#E5C68D"/>
</radialGradient>
<radialGradient id="paint3_radial_2431_610" cx="0" cy="0" r="1" gradientUnits="userSpaceOnUse" gradientTransform="translate(102.007 214.65) rotate(39.4328) scale(10.8238)">
<stop stopColor="#F8F6F2"/>
<stop offset="0.5" stopColor="#EFDEC0"/>
<stop offset="1" stopColor="#E5C68D"/>
</radialGradient>
<radialGradient id="paint4_radial_2431_610" cx="0" cy="0" r="1" gradientUnits="userSpaceOnUse" gradientTransform="translate(19.0072 167.65) rotate(39.4328) scale(10.8238)">
<stop stopColor="#F8F6F2"/>
<stop offset="0.5" stopColor="#EFDEC0"/>
<stop offset="1" stopColor="#E5C68D"/>
</radialGradient>
<radialGradient id="paint5_radial_2431_610" cx="0" cy="0" r="1" gradientUnits="userSpaceOnUse" gradientTransform="translate(19.0072 55.65) rotate(39.4328) scale(10.8238)">
<stop stopColor="#F8F6F2"/>
<stop offset="0.5" stopColor="#EFDEC0"/>
<stop offset="1" stopColor="#E5C68D"/>
</radialGradient>
</defs>
</svg>
