<svg width="199" height="236" viewBox="0 0 199 236" fill="none" xmlns="http://www.w3.org/2000/svg">
<path d="M92.9092 5.37207C96.1261 3.7472 99.919 3.72447 103.155 5.31055L190.061 47.9033C194.001 49.8348 196.5 53.8407 196.5 58.2295V173.109C196.5 177.352 194.164 181.25 190.422 183.251L103.522 229.712C100.089 231.547 95.9606 231.521 92.5508 229.643L8.4502 183.302C4.7798 181.279 2.5 177.42 2.5 173.229V58.1133C2.5 53.7743 4.94244 49.8049 8.81543 47.8486L92.9092 5.37207Z" fill="#E5C68D" stroke="#E5C68D" strokeWidth="5"/>
<circle cx="184.5" cy="59.5" r="5.5" fill="url(#paint0_radial_2433_611)"/>
<circle cx="184.5" cy="171.5" r="5.5" fill="url(#paint1_radial_2433_611)"/>
<circle cx="99.5" cy="217.5" r="5.5" fill="url(#paint2_radial_2433_611)"/>
<circle cx="14.5" cy="171.5" r="5.5" fill="url(#paint3_radial_2433_611)"/>
<circle cx="14.5" cy="59.5" r="5.5" fill="url(#paint4_radial_2433_611)"/>
<path d="M97.5031 54.7661C98.3039 53.7446 99.8498 53.7446 100.651 54.7661L126.15 87.2944C127.178 88.607 126.243 90.5278 124.575 90.5278H116.746L135.578 117.066C136.518 118.39 135.571 120.223 133.947 120.223H128.766L146.24 142.642C147.264 143.956 146.329 145.872 144.663 145.872H138.221L153.975 164.344C155.082 165.643 154.159 167.642 152.453 167.642H45.7014C43.995 167.642 43.0727 165.643 44.1799 164.344L59.9338 145.872H53.4914C51.8262 145.872 50.8905 143.956 51.9143 142.642L69.3889 120.223H64.2815C62.6576 120.223 61.7109 118.39 62.6506 117.066L81.4826 90.5278H73.5783C71.9107 90.5278 70.9756 88.607 72.0041 87.2944L97.5031 54.7661Z" fill="#1F4638"/>
<path d="M92.9043 8.0332C96.5407 6.19658 100.828 6.17097 104.486 7.96387L187.961 48.875C192.416 51.0584 195.24 55.5867 195.24 60.5479V170.944C195.24 175.741 192.599 180.147 188.369 182.408L104.901 227.035C101.02 229.11 96.3526 229.081 92.498 226.957L11.7266 182.45C7.57755 180.164 5.00017 175.802 5 171.064V60.4316C5 55.5268 7.76069 51.0396 12.1387 48.8281L92.9043 8.0332Z" stroke="#1F4638" strokeWidth="2"/>
<circle cx="98.1978" cy="16.5" r="5.5" fill="url(#paint5_radial_2433_611)"/>
<defs>
<radialGradient id="paint0_radial_2433_611" cx="0" cy="0" r="1" gradientUnits="userSpaceOnUse" gradientTransform="translate(180.705 55.65) rotate(39.4328) scale(10.8238)">
<stop stopColor="#F8F6F2"/>
<stop offset="0.5" stopColor="#EFDEC0"/>
<stop offset="1" stopColor="#E5C68D"/>
</radialGradient>
<radialGradient id="paint1_radial_2433_611" cx="0" cy="0" r="1" gradientUnits="userSpaceOnUse" gradientTransform="translate(180.705 167.65) rotate(39.4328) scale(10.8238)">
<stop stopColor="#F8F6F2"/>
<stop offset="0.5" stopColor="#EFDEC0"/>
<stop offset="1" stopColor="#E5C68D"/>
</radialGradient>
<radialGradient id="paint2_radial_2433_611" cx="0" cy="0" r="1" gradientUnits="userSpaceOnUse" gradientTransform="translate(95.705 213.65) rotate(39.4328) scale(10.8238)">
<stop stopColor="#F8F6F2"/>
<stop offset="0.5" stopColor="#EFDEC0"/>
<stop offset="1" stopColor="#E5C68D"/>
</radialGradient>
<radialGradient id="paint3_radial_2433_611" cx="0" cy="0" r="1" gradientUnits="userSpaceOnUse" gradientTransform="translate(10.705 167.65) rotate(39.4328) scale(10.8238)">
<stop stopColor="#F8F6F2"/>
<stop offset="0.5" stopColor="#EFDEC0"/>
<stop offset="1" stopColor="#E5C68D"/>
</radialGradient>
<radialGradient id="paint4_radial_2433_611" cx="0" cy="0" r="1" gradientUnits="userSpaceOnUse" gradientTransform="translate(10.705 55.65) rotate(39.4328) scale(10.8238)">
<stop stopColor="#F8F6F2"/>
<stop offset="0.5" stopColor="#EFDEC0"/>
<stop offset="1" stopColor="#E5C68D"/>
</radialGradient>
<radialGradient id="paint5_radial_2433_611" cx="0" cy="0" r="1" gradientUnits="userSpaceOnUse" gradientTransform="translate(94.4028 12.65) rotate(39.4328) scale(10.8238)">
<stop stopColor="#F8F6F2"/>
<stop offset="0.5" stopColor="#EFDEC0"/>
<stop offset="1" stopColor="#E5C68D"/>
</radialGradient>
</defs>
</svg>
