<svg width="199" height="236" viewBox="0 0 199 236" fill="none" xmlns="http://www.w3.org/2000/svg">
<path d="M92.9092 5.37207C96.1261 3.7472 99.919 3.72447 103.155 5.31055L190.061 47.9033C194.001 49.8348 196.5 53.8407 196.5 58.2295V173.109C196.5 177.352 194.164 181.25 190.422 183.251L103.522 229.712C100.089 231.547 95.9606 231.521 92.5508 229.643L8.4502 183.302C4.7798 181.279 2.5 177.42 2.5 173.229V58.1133C2.5 53.7743 4.94244 49.8049 8.81543 47.8486L92.9092 5.37207Z" fill="#D9D9D9" stroke="#D9D9D9" stroke-width="5"/>
<circle cx="184.5" cy="59.5" r="5.5" fill="url(#paint0_radial_2433_630)"/>
<circle cx="184.5" cy="171.5" r="5.5" fill="url(#paint1_radial_2433_630)"/>
<circle cx="99.5" cy="217.5" r="5.5" fill="url(#paint2_radial_2433_630)"/>
<circle cx="14.5" cy="171.5" r="5.5" fill="url(#paint3_radial_2433_630)"/>
<circle cx="14.5" cy="59.5" r="5.5" fill="url(#paint4_radial_2433_630)"/>
<path d="M97.5065 52.7661C98.3072 51.7446 99.8542 51.7446 100.655 52.7661L126.155 85.2954C127.184 86.608 126.248 88.5288 124.581 88.5288H116.75L135.583 115.067C136.522 116.391 135.576 118.224 133.952 118.224H128.77L146.247 140.644C147.27 141.957 146.335 143.873 144.67 143.874H138.226L153.981 162.347C155.088 163.645 154.166 165.645 152.46 165.645H45.7018C43.9956 165.645 43.0732 163.645 44.1803 162.347L59.9352 143.874H53.4928C51.8275 143.874 50.8909 141.957 51.9147 140.644L69.3912 118.224H64.2819C62.6582 118.224 61.7113 116.391 62.651 115.067L81.484 88.5288H73.5807C71.9129 88.5288 70.9777 86.608 72.0065 85.2954L97.5065 52.7661Z" fill="#1F4638"/>
<path d="M92.9043 8.0332C96.5407 6.19658 100.828 6.17097 104.486 7.96387L187.961 48.875C192.416 51.0584 195.24 55.5867 195.24 60.5479V170.944C195.24 175.741 192.599 180.147 188.369 182.408L104.901 227.035C101.02 229.11 96.3526 229.081 92.498 226.957L11.7266 182.45C7.57755 180.164 5.00017 175.802 5 171.064V60.4316C5 55.5268 7.76069 51.0396 12.1387 48.8281L92.9043 8.0332Z" stroke="#1F4638" stroke-width="2"/>
<circle cx="98.1982" cy="16.5" r="5.5" fill="url(#paint5_radial_2433_630)"/>
<defs>
<radialGradient id="paint0_radial_2433_630" cx="0" cy="0" r="1" gradientUnits="userSpaceOnUse" gradientTransform="translate(180.705 55.65) rotate(39.4328) scale(10.8238)">
<stop stop-color="#F8F6F2"/>
<stop offset="0.5" stop-color="#EFDEC0"/>
<stop offset="1" stop-color="#E5C68D"/>
</radialGradient>
<radialGradient id="paint1_radial_2433_630" cx="0" cy="0" r="1" gradientUnits="userSpaceOnUse" gradientTransform="translate(180.705 167.65) rotate(39.4328) scale(10.8238)">
<stop stop-color="#F8F6F2"/>
<stop offset="0.5" stop-color="#EFDEC0"/>
<stop offset="1" stop-color="#E5C68D"/>
</radialGradient>
<radialGradient id="paint2_radial_2433_630" cx="0" cy="0" r="1" gradientUnits="userSpaceOnUse" gradientTransform="translate(95.705 213.65) rotate(39.4328) scale(10.8238)">
<stop stop-color="#F8F6F2"/>
<stop offset="0.5" stop-color="#EFDEC0"/>
<stop offset="1" stop-color="#E5C68D"/>
</radialGradient>
<radialGradient id="paint3_radial_2433_630" cx="0" cy="0" r="1" gradientUnits="userSpaceOnUse" gradientTransform="translate(10.705 167.65) rotate(39.4328) scale(10.8238)">
<stop stop-color="#F8F6F2"/>
<stop offset="0.5" stop-color="#EFDEC0"/>
<stop offset="1" stop-color="#E5C68D"/>
</radialGradient>
<radialGradient id="paint4_radial_2433_630" cx="0" cy="0" r="1" gradientUnits="userSpaceOnUse" gradientTransform="translate(10.705 55.65) rotate(39.4328) scale(10.8238)">
<stop stop-color="#F8F6F2"/>
<stop offset="0.5" stop-color="#EFDEC0"/>
<stop offset="1" stop-color="#E5C68D"/>
</radialGradient>
<radialGradient id="paint5_radial_2433_630" cx="0" cy="0" r="1" gradientUnits="userSpaceOnUse" gradientTransform="translate(94.4032 12.65) rotate(39.4328) scale(10.8238)">
<stop stop-color="#F8F6F2"/>
<stop offset="0.5" stop-color="#EFDEC0"/>
<stop offset="1" stop-color="#E5C68D"/>
</radialGradient>
</defs>
</svg>
